<?xml version="1.0" encoding="UTF-8"?>
<svg viewBox="0 0 389.76376 248.03149" xmlns="http://www.w3.org/2000/svg" xmlns:xlink="http://www.w3.org/1999/xlink">
 <defs>
  <linearGradient id="a">
   <stop stop-opacity=".5" offset="0"/>
   <stop stop-color="#fff" stop-opacity=".5" offset="1"/>
  </linearGradient>
  <linearGradient id="e" x1="10.543" x2="15.5" y1="273.3" y2="277.85" gradientUnits="userSpaceOnUse">
   <stop stop-opacity=".78439" offset="0"/>
   <stop stop-color="#4b4b4b" stop-opacity=".78067" offset="1"/>
  </linearGradient>
  <linearGradient id="g" x1="171.7" x2="176.32" y1="183.26" y2="191.83" gradientUnits="userSpaceOnUse" xlink:href="#a"/>
  <linearGradient id="d" x1="98.742" x2="117.12" y1="184.22" y2="203.99" gradientUnits="userSpaceOnUse" xlink:href="#a"/>
  <linearGradient id="c" x1="83.997" x2="116.41" y1="169.28" y2="201.26" gradientUnits="userSpaceOnUse" xlink:href="#a"/>
  <linearGradient id="f" x1="512.99" x2="508.85" y1="58.63" y2="53.273" gradientUnits="userSpaceOnUse" xlink:href="#a"/>
  <linearGradient id="b" x1="18.542" x2="15.5" y1="282.16" y2="277.85" gradientUnits="userSpaceOnUse" xlink:href="#a"/>
 </defs>
 <path d="m-17.717-17.717h424.2v282.88h-424.2v-282.88z" fill="#fff"/>
 <g transform="translate(-387.12 -26.443)">
  <path d="m505.82 81.355c-44.986 0-81.5 36.514-81.5 81.5s36.514 81.5 81.5 81.5 81.5-36.514 81.5-81.5-36.514-81.5-81.5-81.5zm0 56.969c13.541 0 24.531 10.99 24.531 24.531s-10.99 24.531-24.531 24.531-24.531-10.99-24.531-24.531 10.99-24.531 24.531-24.531z"/>
  <path d="m658.17 116.79c-25.427 0-46.062 20.636-46.062 46.062s20.636 46.062 46.062 46.062 46.062-20.636 46.062-46.062-20.636-46.062-46.062-46.062zm0 23.031c12.713 0 23.031 10.318 23.031 23.031s-10.318 23.031-23.031 23.031-23.031-10.318-23.031-23.031 10.318-23.031 23.031-23.031z" fill="#060000"/>
  <path d="m417.22 38.855c-5.889 0-10.625 4.736-10.625 10.625v7.0625c-1.963 0-3.5312 1.5995-3.5312 3.5625v38.969c0 1.963 1.5683 3.5625 3.5312 3.5625v148.81c0 5.889 4.736 10.625 10.625 10.625h329.53c5.889 0 10.625-4.736 10.625-10.625v-148.81c1.963 0 3.5625-1.5995 3.5625-3.5625v-38.969c0-1.963-1.5995-3.5625-3.5625-3.5625v-7.0625c0-5.889-4.736-10.625-10.625-10.625h-329.53zm77.969 2.6562c4.4008 0 7.9688 3.568 7.9688 7.9688s-3.568 7.9688-7.9688 7.9688-7.9688-3.568-7.9688-7.9688 3.568-7.9688 7.9688-7.9688zm173.62 0c4.4008 0 7.9688 3.568 7.9688 7.9688s-3.568 7.9688-7.9688 7.9688-8-3.568-8-7.9688 3.5992-7.9688 8-7.9688zm-139.97 7.9688h5.3125c1.963 0 3.5312 1.5683 3.5312 3.5312v5.3125c-1e-5 1.963-1.5683 3.5625-3.5312 3.5625h-5.3125c-1.963 0-3.5625-1.5995-3.5625-3.5625v-5.3125c0-1.963 1.5995-3.5312 3.5625-3.5312zm100.97 0h5.3125c1.963 0 3.5625 1.5683 3.5625 3.5312v5.3125c-1e-5 1.963-1.5995 3.5625-3.5625 3.5625h-5.3125c-1.963 0-3.5312-1.5995-3.5312-3.5625v-5.3125c0-1.963 1.5683-3.5312 3.5312-3.5312zm-83.219 92.125h70.812c1.9786 0 3.5625 1.5839 3.5625 3.5625v35.375c0 1.9786-1.5839 3.5625-3.5625 3.5625h-70.812c-1.9786 0-3.5625-1.5839-3.5625-3.5625v-35.375c0-1.9786 1.5839-3.5625 3.5625-3.5625zm-40.781 1.75c10.757 0 19.469 8.7425 19.469 19.5s-8.7113 19.5-19.469 19.5-19.5-8.7425-19.5-19.5 8.7425-19.5 19.5-19.5zm152.34 0c10.757 0 19.5 8.7425 19.5 19.5s-8.7425 19.5-19.5 19.5-19.469-8.7425-19.469-19.5 8.7113-19.5 19.469-19.5z" fill="#6184b7"/>
  <path d="m543.91 45.907h76.156v21.281h-76.156z" fill="#41567a"/>
  <g transform="translate(406.6 -23.166)">
   <path transform="translate(0 1.7716)" d="m138.22 161.22c-1.9786 0-3.5625 1.5683-3.5625 3.5312v39c0 1.963 1.5839 3.5313 3.5625 3.5312h74.344c1.9786 0 3.5938-1.5682 3.5938-3.5312v-39c0-1.963-1.6152-3.5312-3.5938-3.5312h-74.344zm1.7812 1.7812h70.812c1.9786 0 3.5625 1.5839 3.5625 3.5625v35.375c0 1.9786-1.5839 3.5625-3.5625 3.5625h-70.812c-1.9786 0-3.5938-1.5839-3.5938-3.5625v-35.375c0-1.9786 1.6152-3.5625 3.5938-3.5625z" fill="url(#g)"/>
   <path d="m139.99 164.76h70.81a3.5714 3.5714 0 0 1 3.5714 3.5714v35.377a3.5714 3.5714 0 0 1 -3.5714 3.5714h-70.81a3.5714 3.5714 0 0 1 -3.5714 -3.5714v-35.377a3.5714 3.5714 0 0 1 3.5714 -3.5714" fill="#7f7f7f" fill-opacity=".47393"/>
  </g>
  <g transform="translate(406.6 -21.395)">
   <path d="m99.219 161.22c-12.713 0-23.031 10.318-23.031 23.031s10.318 23.031 23.031 23.031 23.031-10.318 23.031-23.031-10.318-23.031-23.031-23.031zm0 3.5312c10.757 0 19.469 8.7425 19.469 19.5s-8.7113 19.5-19.469 19.5-19.5-8.7425-19.5-19.5 8.7425-19.5 19.5-19.5z" fill="url(#d)"/>
   <path d="m99.219 164.75c-10.757 0-19.5 8.7425-19.5 19.5s8.7425 19.5 19.5 19.5 19.469-8.7425 19.469-19.5-8.7113-19.5-19.469-19.5zm-1.8125 1.7812h0.03125v3.5312h3.5625v-3.5312c5.1008 0.50962 9.5727 3.186 12.469 7.0938l-2.9375 1.6875 1.7812 3.0625 2.9375-1.6875c1.0632 2.2744 1.6875 4.7935 1.6875 7.4688 0 2.71-0.62945 5.2656-1.7188 7.5625l-2.9688-1.7188-1.7812 3.0625 2.9375 1.7188c-2.8977 3.8585-7.3448 6.4942-12.406 7v-3.4688h-3.5312v3.4688c-5.0878-0.49951-9.5343-3.1801-12.438-7.0625l2.9062-1.6562-1.75-3.0625-2.9688 1.6875c-1.083-2.2911-1.7188-4.8296-1.7188-7.5312 0-2.7056 0.60155-5.268 1.6875-7.5625l3 1.75 1.7812-3.0938-2.9375-1.6875c2.8912-3.8683 7.313-6.5166 12.375-7.0312z" fill="#fff"/>
   <path d="m99.219 164.75c-10.757 0-19.5 8.7425-19.5 19.5s8.7425 19.5 19.5 19.5 19.469-8.7425 19.469-19.5-8.7113-19.5-19.469-19.5zm-1.8125 1.7812h0.03125v3.5312h3.5625v-3.5312c5.1008 0.50962 9.5727 3.186 12.469 7.0938l-2.9375 1.6875 1.7812 3.0625 2.9375-1.6875c1.0632 2.2744 1.6875 4.7935 1.6875 7.4688 0 2.71-0.62945 5.2656-1.7188 7.5625l-2.9688-1.7188-1.7812 3.0625 2.9375 1.7188c-2.8977 3.8585-7.3448 6.4942-12.406 7v-3.4688h-3.5312v3.4688c-5.0878-0.49951-9.5343-3.1801-12.438-7.0625l2.9062-1.6562-1.75-3.0625-2.9688 1.6875c-1.083-2.2911-1.7188-4.8296-1.7188-7.5312 0-2.7056 0.60155-5.268 1.6875-7.5625l3 1.75 1.7812-3.0938-2.9375-1.6875c2.8912-3.8683 7.313-6.5166 12.375-7.0312z" fill="url(#c)"/>
  </g>
  <path d="m456.19 38.855 9.6875 48.5c0.93537 4.554 3.0596 4.5619 6.2812 4.625 5.2056 0.10005 214.48 0 219.56 0 4.746 0 6.2163-4.1949 7.0938-8.125l8.9688-45h-3.5625l-10.188 47.812c-0.19061 0.71137-0.44837 1.7812-2.25 1.7812h-219.59c-1.7946 0-2.038-1.0443-2.2188-1.7188l-10.219-47.875h-3.5625z" fill="url(#f)" fill-rule="evenodd"/>
  <g transform="translate(558.96 -21.393)">
   <path d="m99.219 161.22c-12.713 0-23.031 10.318-23.031 23.031s10.318 23.031 23.031 23.031 23.031-10.318 23.031-23.031-10.318-23.031-23.031-23.031zm0 3.5312c10.757 0 19.469 8.7425 19.469 19.5s-8.7113 19.5-19.469 19.5-19.5-8.7425-19.5-19.5 8.7425-19.5 19.5-19.5z" fill="url(#d)"/>
   <path d="m99.219 164.75c-10.757 0-19.5 8.7425-19.5 19.5s8.7425 19.5 19.5 19.5 19.469-8.7425 19.469-19.5-8.7113-19.5-19.469-19.5zm-1.8125 1.7812h0.03125v3.5312h3.5625v-3.5312c5.1008 0.50962 9.5727 3.186 12.469 7.0938l-2.9375 1.6875 1.7812 3.0625 2.9375-1.6875c1.0632 2.2744 1.6875 4.7935 1.6875 7.4688 0 2.71-0.62945 5.2656-1.7188 7.5625l-2.9688-1.7188-1.7812 3.0625 2.9375 1.7188c-2.8977 3.8585-7.3448 6.4942-12.406 7v-3.4688h-3.5312v3.4688c-5.0878-0.49951-9.5343-3.1801-12.438-7.0625l2.9062-1.6562-1.75-3.0625-2.9688 1.6875c-1.083-2.2911-1.7188-4.8296-1.7188-7.5312 0-2.7056 0.60155-5.268 1.6875-7.5625l3 1.75 1.7812-3.0938-2.9375-1.6875c2.8912-3.8683 7.313-6.5166 12.375-7.0312z" fill="#fff"/>
   <path d="m99.219 164.75c-10.757 0-19.5 8.7425-19.5 19.5s8.7425 19.5 19.5 19.5 19.469-8.7425 19.469-19.5-8.7113-19.5-19.469-19.5zm-1.8125 1.7812h0.03125v3.5312h3.5625v-3.5312c5.1008 0.50962 9.5727 3.186 12.469 7.0938l-2.9375 1.6875 1.7812 3.0625 2.9375-1.6875c1.0632 2.2744 1.6875 4.7935 1.6875 7.4688 0 2.71-0.62945 5.2656-1.7188 7.5625l-2.9688-1.7188-1.7812 3.0625 2.9375 1.7188c-2.8977 3.8585-7.3448 6.4942-12.406 7v-3.4688h-3.5312v3.4688c-5.0878-0.49951-9.5343-3.1801-12.438-7.0625l2.9062-1.6562-1.75-3.0625-2.9688 1.6875c-1.083-2.2911-1.7188-4.8296-1.7188-7.5312 0-2.7056 0.60155-5.268 1.6875-7.5625l3 1.75 1.7812-3.0938-2.9375-1.6875c2.8912-3.8683 7.313-6.5166 12.375-7.0312z" fill="url(#c)"/>
  </g>
  <g transform="translate(406.6 -24.052)">
   <path transform="matrix(1.6086 0 0 1.7538 150.46 -385.43)" d="m20.456 277.85a4.9561 4.5457 0 1 1 -9.9121 0 4.9561 4.5457 0 1 1 9.9121 0z"/>
   <path transform="matrix(1.4299 0 0 1.559 153.23 -331.28)" d="m20.456 277.85a4.9561 4.5457 0 1 1 -9.9121 0 4.9561 4.5457 0 1 1 9.9121 0z" fill="#121212"/>
   <path transform="matrix(1.4299 0 0 1.559 153.23 -331.28)" d="m20.456 277.85c0 2.5092-2.2203 4.5457-4.9561 4.5457s-4.9561-2.0365-4.9561-4.5457 2.2203-4.5457 4.9561-4.5457 4.9561 2.0365 4.9561 4.5457z" fill="url(#e)"/>
   <path d="m177.9 106.88c-2.5055-2.5055-2.5055-2.5055-5.011 0l-2.5055-2.5055c2.5055-2.5055 2.5055-2.5055 1e-5 -5.011l2.5055-2.5055c2.5055 2.5055 2.5055 2.5055 5.011-1e-5l2.5055 2.5055c-2.5055 2.5055-2.5055 2.5055 0 5.011l-2.5055 2.5055z" fill-rule="evenodd"/>
  </g>
  <path d="m543.91 45.918v21.281l0.875-0.90625v-19.469h74.406l0.875-0.90625h-76.156z" fill-opacity=".50196"/>
  <path d="m543.91 67.188h76.156v-21.281l-0.875 0.90625v19.469h-74.406l-0.875 0.90625z" fill="#fff" fill-opacity=".50196"/>
  <path d="m582.00603,154.05832c-.831,0-1.5.669-1.5,1.5v6.125h-10v1.34375h10.90625v-6.125c0-.831.669-1.5 1.5-1.5 .20775,0 .41417.0493.59375.125-.01628-.81668-.67928-1.46875-1.5-1.46875zm-13.90625,3.53125c-.831,0-1.5.66899-1.5,1.5v2.59375h-9.65625c-.831,0-1.5.669-1.5,1.5 0,.62325.36752,1.14789.90625,1.375-.0002-.01023 0-.02097 0-.03125 0-.831.669-1.5 1.5-1.5h9.65625v-2.59375c0-.83101.669-1.5 1.5-1.5 .20775,0 .41417.0493.59375.125-.01628-.81668-.67928-1.46876-1.5-1.46875zm27.8125,0c-.831,0-1.5.66899-1.5,1.5v2.59375h-10v1.34375h10.90625v-2.59375c0-.83101.669-1.5 1.5-1.5 .20775,0 .41417.0493.59375.125-.01628-.81668-.67928-1.46876-1.5-1.46875zm2.40625,4.09375v1.34375h9.65625c.20775,0 .41417.0493.59375.125-.01628-.81668-.67928-1.46875-1.5-1.46875h-8.75zm-31.71875,4.34375v.6875c0,.62325.36752,1.14789.90625,1.375-.0002-.01023 0-.02097 0-.03125v-2.03125h-.90625zm13.90625,0v4.25c0,.62325.36752,1.14789.90625,1.375-.0002-.01023 0-.02097 0-.03125v-5.59375h-.90625zm13.90625,0v.6875c0,.62325.36752,1.14789.90625,1.375-.0002-.01023 0-.02097 0-.03125v-2.03125h-.90625z" fill="#fff" fill-opacity=".58768"/>
  <g transform="translate(406.6 -21.395)">
   <path d="m315.35 85.039h14.173a3.5433 3.5433 0 0 1 3.5433 3.5433v21.26a3.5433 3.5433 0 0 1 -3.5433 3.5433h-14.173a3.5433 3.5433 0 0 1 -3.5433 -3.5433v-21.26a3.5433 3.5433 0 0 1 3.5433 -3.5433" fill="#41567a"/>
   <path d="m331.57 85.73c0.48369 0.60562 0.78125 1.3799 0.78125 2.2188v21.25c2e-5 1.963-1.5683 3.5312-3.5312 3.5312h-14.188c-0.73612 0-1.4034-0.21244-1.9688-0.59375 0.64896 0.7669 1.5996 1.25 2.6875 1.25h14.188c1.963 0 3.5313-1.5683 3.5312-3.5312v-21.25c0-1.1955-0.59823-2.2339-1.5-2.875z" fill="#fff" fill-opacity=".70588"/>
   <path d="m315.34 85.039c-1.963 0-3.5312 1.5683-3.5312 3.5312v21.281c0 1.2524 0.64947 2.3389 1.625 2.9688-0.52599-0.61795-0.84375-1.4025-0.84375-2.2812v-21.281c0-1.963 1.5683-3.5312 3.5312-3.5312h14.188c0.71058 0 1.3528 0.20516 1.9062 0.5625-0.64894-0.76238-1.6033-1.25-2.6875-1.25h-14.188z" fill-opacity=".70588"/>
  </g>
  <g transform="translate(360.54 -21.401)">
   <path transform="translate(46.063)" d="m315.3125,91.6875c-.14043.00495-.26933.07899-.34437.1978s-.0865.26702-.03063.39595l5.71875,14.1875c.06142.17092.22465.28393.40625.28125h2.65625c.1816.00268.34483-.11033.40625-.28125l5.8125-14.1875c.0581-.13402.0433-.28849-.03919-.40904s-.22109-.19031-.36706-.18471h-2.21875c-.1816-.00268-.34483.11033-.40625.28125l-1.59375,3.96875h-5.6875l-1.53125-3.96875c-.06142-.17092-.22465-.28393-.40625-.28125h-2.34375-.03125zm5.25,6.65625h3.875l-2,4.84375-1.875-4.84375z" fill="#6184b7"/>
   <path d="m363.59123,91.68748 1.53125,3.9375h.4375l-1.40625-3.65625c-.0614-.17092-.22465-.28393-.40625-.28125h-.15625zm11.875,0c.02452.09141.00748.1919-.03125.28125l-5.8125,14.1875c-.06142.17092-.22465.28393-.40625.28125h-2.5v.03125c.06143.17092.22465.28393.40625.28125h2.65625c.18161.00268.34483-.11033.40625-.28125l5.8125-14.1875c.05811-.13402.05123-.2857-.03125-.40625s-.22903-.1931-.375-.1875h-.125zm-9.40625,6.34375 1.875,4.84375 .21875-.5625-1.53125-3.96875h3.1875l.125-.3125h-3.875z" fill-opacity=".70588"/>
   <path d="m361.37479,91.68704c-.14041.00495-.26871.06869-.34375.1875s-.08712.27732-.03125.40625l5.71875,14.18748c.06143.17092.22465.28393.40625.28125h.1875l-5.71875-14.15623c-.05587-.12893-.04378-.28745.03125-.40625s.20331-.18255.34375-.1875h.03125 2.15625v-.03125c-.0614-.17092-.22465-.28393-.40625-.28125h-2.34375-.03125zm12,0c-.18158-.00268-.34483.11033-.40625.28125l-1.59375,3.96875h-5.21875l.125.3125h5.6875l1.59375-3.96875c.06142-.17092.22464-.28393.40625-.28125h2.03125c-.01233-.04448-.00444-.08582-.03125-.125-.08247-.12056-.22903-.1931-.375-.1875h-2.21875zm-3,6.96875-1.625,3.93748 .34375.90625 2-4.84373h-.71875z" fill="#fff" fill-opacity=".70616"/>
  </g>
  <g transform="translate(112.51 -21.395)">
   <path d="m315.35 85.039h14.173a3.5433 3.5433 0 0 1 3.5433 3.5433v21.26a3.5433 3.5433 0 0 1 -3.5433 3.5433h-14.173a3.5433 3.5433 0 0 1 -3.5433 -3.5433v-21.26a3.5433 3.5433 0 0 1 3.5433 -3.5433" fill="#41567a"/>
   <path d="m331.57 85.73c0.48369 0.60562 0.78125 1.3799 0.78125 2.2188v21.25c2e-5 1.963-1.5683 3.5312-3.5312 3.5312h-14.188c-0.73612 0-1.4034-0.21244-1.9688-0.59375 0.64896 0.7669 1.5996 1.25 2.6875 1.25h14.188c1.963 0 3.5313-1.5683 3.5312-3.5312v-21.25c0-1.1955-0.59823-2.2339-1.5-2.875z" fill="#fff" fill-opacity=".70588"/>
   <path d="m315.34 85.039c-1.963 0-3.5312 1.5683-3.5312 3.5312v21.281c0 1.2524 0.64947 2.3389 1.625 2.9688-0.52599-0.61795-0.84375-1.4025-0.84375-2.2812v-21.281c0-1.963 1.5683-3.5312 3.5312-3.5312h14.188c0.71058 0 1.3528 0.20516 1.9062 0.5625-0.64894-0.76238-1.6033-1.25-2.6875-1.25h-14.188z" fill-opacity=".70588"/>
  </g>
  <g transform="translate(66.446 -21.401)">
   <path transform="translate(46.063)" d="m315.3125,91.6875c-.14043.00495-.26933.07899-.34437.1978s-.0865.26702-.03063.39595l5.71875,14.1875c.06142.17092.22465.28393.40625.28125h2.65625c.1816.00268.34483-.11033.40625-.28125l5.8125-14.1875c.0581-.13402.0433-.28849-.03919-.40904s-.22109-.19031-.36706-.18471h-2.21875c-.1816-.00268-.34483.11033-.40625.28125l-1.59375,3.96875h-5.6875l-1.53125-3.96875c-.06142-.17092-.22465-.28393-.40625-.28125h-2.34375-.03125zm5.25,6.65625h3.875l-2,4.84375-1.875-4.84375z" fill="#6184b7"/>
   <path d="m363.59123,91.68748 1.53125,3.9375h.4375l-1.40625-3.65625c-.0614-.17092-.22465-.28393-.40625-.28125h-.15625zm11.875,0c.02452.09141.00748.1919-.03125.28125l-5.8125,14.1875c-.06142.17092-.22465.28393-.40625.28125h-2.5v.03125c.06143.17092.22465.28393.40625.28125h2.65625c.18161.00268.34483-.11033.40625-.28125l5.8125-14.1875c.05811-.13402.05123-.2857-.03125-.40625s-.22903-.1931-.375-.1875h-.125zm-9.40625,6.34375 1.875,4.84375 .21875-.5625-1.53125-3.96875h3.1875l.125-.3125h-3.875z" fill-opacity=".70588"/>
   <path d="m361.37479,91.68704c-.14041.00495-.26871.06869-.34375.1875s-.08712.27732-.03125.40625l5.71875,14.18748c.06143.17092.22465.28393.40625.28125h.1875l-5.71875-14.15623c-.05587-.12893-.04378-.28745.03125-.40625s.20331-.18255.34375-.1875h.03125 2.15625v-.03125c-.0614-.17092-.22465-.28393-.40625-.28125h-2.34375-.03125zm12,0c-.18158-.00268-.34483.11033-.40625.28125l-1.59375,3.96875h-5.21875l.125.3125h5.6875l1.59375-3.96875c.06142-.17092.22464-.28393.40625-.28125h2.03125c-.01233-.04448-.00444-.08582-.03125-.125-.08247-.12056-.22903-.1931-.375-.1875h-2.21875zm-3,6.96875-1.625,3.93748 .34375.90625 2-4.84373h-.71875z" fill="#fff" fill-opacity=".70616"/>
  </g>
  <g transform="translate(406.6 -21.395)">
   <path d="m19.5 116.9c-1.963 0-3.5625 1.5995-3.5625 3.5625v141.75c0 1.963 1.5995 3.5312 3.5625 3.5312h311.81c1.963 0 3.5312-1.5682 3.5312-3.5312v-141.75c0-1.963-1.5683-3.5625-3.5312-3.5625h-311.81zm47.812 42.536h216.16c1.963 0 3.5312 1.5995 3.5312 3.5625v42.5c1e-5 1.963-1.5683 3.5625-3.5312 3.5625h-216.16c-1.963 1e-5 -3.5312-1.5995-3.5312-3.5625v-42.5c0-1.963 1.5683-3.5625 3.5312-3.5625zm31.906 1.7812c-0.66571 0-1.3173 0.03831-1.9688 0.09375h3.9375c-0.65144-0.05544-1.303-0.09375-1.9688-0.09375zm152.34 0c-0.66571 0-1.3173 0.03831-1.9688 0.09375h3.9375c-0.65144-0.05544-1.303-0.09375-1.9688-0.09375z" fill="#41567a"/>
   <path d="m19.5 116.9c-1.963 1e-5 -3.5625 1.5995-3.5625 3.5625v141.78c-1e-5 1.1283 0.55284 2.1054 1.375 2.75-0.42493-0.58068-0.6875-1.3164-0.6875-2.0938v-141.75c0-1.963 1.5995-3.5625 3.5625-3.5625h311.81c0.80745 0 1.5328 0.29475 2.125 0.75-0.64259-0.8564-1.657-1.4375-2.8125-1.4375h-311.81zm266.78 43.969c0.44902 0.59843 0.71875 1.3488 0.71875 2.1562v42.5c3e-5 1.963-1.5683 3.5625-3.5312 3.5625h-216.16c-0.80746 1e-5 -1.5328-0.29475-2.125-0.75 0.64259 0.8564 1.657 1.4062 2.8125 1.4062h216.16c1.963 0 3.5313-1.5995 3.5312-3.5625v-42.5c0-1.1555-0.55876-2.161-1.4062-2.8125zm-187.06 0.375c-0.66572 0-1.3173 0.03831-1.9688 0.09375h3.9375c-0.65145-0.05544-1.303-0.09375-1.9688-0.09375zm152.34 0c-0.66569 0-1.3173 0.03831-1.9688 0.09375h3.9375c-0.65142-0.05544-1.303-0.09375-1.9688-0.09375z" fill-opacity=".70588"/>
   <path d="m333.31 117.5c0.49812 0.61497 0.81251 1.3949 0.8125 2.25v141.75c-1e-5 1.963-1.5682 3.5312-3.5312 3.5312h-311.81c-0.73612-1e-5 -1.4313-0.21456-2-0.59375 0.6541 0.78884 1.6103 1.3125 2.7188 1.3125h311.81c1.963 0 3.5312-1.5682 3.5312-3.5312v-141.75c0-1.2269-0.59255-2.3276-1.5312-2.9688zm-266.72 41.219c-1.963 0-3.5312 1.5995-3.5312 3.5625v42.5c0 1.2269 0.59256 2.3276 1.5312 2.9688-0.50662-0.6175-0.8125-1.3869-0.8125-2.25v-42.5c-1e-5 -1.963 1.5683-3.5625 3.5312-3.5625h216.16c0.7214 0 1.4122 0.1918 1.9688 0.5625-0.64566-0.7711-1.6004-1.2812-2.6875-1.2812h-216.16zm32.625 2.5c-0.66572 0-1.3173 0.03831-1.9688 0.09375h3.9375c-0.65145-0.05544-1.303-0.09375-1.9688-0.09375zm152.34 0c-0.66572 0-1.3173 0.03831-1.9688 0.09375h3.9375c-0.65145-0.05544-1.303-0.09375-1.9688-0.09375z" fill="#fff" fill-opacity=".70588"/>
  </g>
  <path d="m757.38 56.543v46.094c1.9629 0 3.5625-1.5995 3.5625-3.5625v-38.969c0-1.963-1.5996-3.5625-3.5625-3.5625z" fill="#41567a"/>
  <path d="m406.6 56.558c-3.5433 0-3.5433 3.5433-3.5433 3.5472v38.972c0 1.0291 0.69136 1.7479 1.5625 2.1562 0 0-1.5625-41.133 1.9808-44.676z" fill="#fff" fill-opacity=".70588"/>
  <path transform="translate(369.4 -258)" d="m47.812 296.84c-5.889 0-10.625 4.736-10.625 10.625v201.97c0 3.2403 1.4166 6.1485 3.6875 8.0938-1.3479-1.7808-2.1562-3.9892-2.1562-6.4062v-201.97c0-5.889 4.736-10.625 10.625-10.625h37.781l-0.34375-1.6875h-38.969zm42.531 0 0.375 1.6875h243.72l0.375-1.6875h-244.47zm248.03 0-0.34375 1.6875h40.844c2.6486 0 5.0813 0.94117 6.9375 2.5312-1.9362-2.5581-4.9968-4.2188-8.4688-4.2188h-38.969z" fill="#fff" fill-opacity=".70588"/>
  <path d="m746.76 262.07c5.889 0 10.625-4.736 10.625-10.625v-201.97c0-3.2403-1.4166-6.1485-3.6875-8.0938 1.3479 1.7808 2.1562 3.9892 2.1562 6.4062v201.97c0 5.889-4.736 10.625-10.625 10.625h-329.53c-2.6486 0-5.0813-0.94117-6.9375-2.5312 1.9362 2.5581 4.9968 4.2188 8.4688 4.2188h329.53z" fill-opacity=".70588"/>
  <path d="m427.86 99.078v141.73l308.27 0.01402-0.00369-141.75h-308.27zm38.976 35.433h230.31v56.693h-230.31v-56.693z" fill="#f9f4ea" fill-opacity=".70588"/>
  <path d="m434.95 205.38h294.09" fill="none" stroke="#303030" stroke-linecap="round" stroke-linejoin="round"/>
  <path d="m434.95 223.09h294.09" fill="none" stroke="#303030" stroke-linecap="round" stroke-linejoin="round"/>
  <path d="m716.64 169.35 3.5485-8.8167h-7.1099l3.5614 8.8167m1.4764 2.3614h-2.9657l-7.3689-17.717h2.7196l1.7613 4.5448h8.7158l1.7613-4.5448h2.7585l-7.3819 17.717" fill="#303030"/>
  <g transform="matrix(-.32 0 0 -.32 446.73 274.92)">
   <path d="m-45.15625,339.85186c-2.15315,3e-005-3.93694.4933-5.25,1.5625-1.30169,1.0676-1.96875,2.60135-1.96875,4.40625 0,1.55838.49,2.88219 1.46875,3.8125s2.44206,1.54641 4.40625,1.9375h.03125l1.5625.28125c1.2304.24769 2.03204.62715 2.46875,1.03125s.65624.91222.65625,1.71875c-1e-005,.9086-.29612,1.50476-.9375,1.96875-.64883.46936-1.62078.74999-3,.75-.89835,0-1.84262-.12782-2.78125-.40625s-1.9046-.71935-2.90625-1.28125c-.18582-.09409-.40706-.08557-.5851.02252s-.28766.30046-.2899.50873v2.625c-.00181.24655.14672.46934.375.5625 1.09589.40239 2.14764.72779 3.1875.9375 1.0522.21045 2.07301.28126 3,.28125 2.44136,0 4.38056-.47347 5.75-1.53125 1.38134-1.05967 2.03123-2.67184 2.03125-4.625-2e-005-1.64449-.46965-3.06339-1.5-4.09375-1.02506-1.04419-2.55946-1.68733-4.53125-2.0625l-1.53125-.3125c-1.34795-.25171-2.24688-.61718-2.59375-.90625-.35766-.30915-.53125-.69657-.53125-1.40625 0-.83939.27376-1.38013.875-1.8125 .61578-.43788 1.56736-.71874 2.875-.71875 .73992,2e-005 1.53135.12873 2.34375.34375s1.68439.51892 2.625.96875c.18293.07994.39358.06412.56252-.04225s.27425-.28948.28123-.489v-2.46875c-.0031-.25446-.16567-.47956-.40625-.5625-.98454-.32816-1.95803-.58468-2.90625-.75-.94343-.16443-1.85747-.24997-2.78125-.25zm84.6875,0c-2.78205,3e-005-5.11061.94376-6.8125,2.84375-1.69599,1.89447-2.5,4.45218-2.5,7.53125s.80637,5.60818 2.5,7.5c1.70129,1.89033 4.02916,2.84376 6.8125,2.84375s5.06038-.95643 6.75-2.84375c1.68979-1.89653 2.53123-4.42478 2.53125-7.5s-.83792-5.63973-2.53125-7.53125c-1.69022-1.89696-3.97595-2.84372-6.75-2.84375zm-76.8125.34375c-.27646.06302-.47161.31021-.46875.59375v2.15625c.00483.3259.26785.58892.59375.59375h6.09375v16.0625c.00483.3259.26785.58892.59375.59375h2.5625c.3259-.00483.58892-.26785.59375-.59375v-16.0625h6.09375c.3259-.00483.58892-.26785.59375-.59375v-2.15625c-.00483-.3259-.26785-.58892-.59375-.59375h-15.9375-.125zm18.40625,0c-.27646.06302-.47161.31021-.46875.59375v18.8125c.00483.3259.26785.58892.59375.59375h12.125c.3259-.00483.58892-.26785.59375-.59375v-2.125c-.00483-.3259-.26785-.58892-.59375-.59375h-9v-5.625h8.375c.3259-.00483.58892-.26785.59375-.59375v-2.15625c-.00483-.3259-.26785-.58892-.59375-.59375h-8.375v-4.375h8.78125c.3259-.00483.58892-.26785.59375-.59375v-2.15625c-.00483-.3259-.26785-.58892-.59375-.59375h-11.90625-.125zm16.34375,0c-.27646.06302-.47161.31021-.46875.59375v18.8125c.00483.3259.26785.58892.59375.59375h2.53125c.3259-.00483.58892-.26785.59375-.59375v-7.34375h2.1875c.92395,0 1.58074.21134 2.03125.53125 .43619.30535 1.02486,1.06479 1.625,2.28125l2.40625,4.8125c.10641.19367.31027.31359.53125.3125h2.75c.20828-.00225.40063-.11186.50873-.2899s.11661-.39928.02252-.5851l-2.59375-5.125c-.53593-1.08911-1.05421-1.96212-1.625-2.625-.23583-.27834-.49493-.51174-.75-.71875 .62144-.34394 1.19571-.77424 1.59375-1.34375 .6339-.89324.93748-1.99795.9375-3.28125-1e-005-1.93413-.59796-3.53107-1.8125-4.5625s-2.95242-1.46873-5.1875-1.46875h-5.75-.125zm17.9375,0c-.27646.06302-.47161.31021-.46875.59375v18.8125c.00483.3259.26785.58892.59375.59375h12.15625c.3259-.00483.58892-.26785.59375-.59375v-2.125c-.00483-.3259-.26785-.58892-.59375-.59375h-9v-5.625h8.375c.3259-.00483.58892-.26785.59375-.59375v-2.15625c-.00483-.3259-.26785-.58892-.59375-.59375h-8.375v-4.375h8.75c.3259-.00483.58892-.26785.59375-.59375v-2.15625c-.00483-.3259-.26785-.58892-.59375-.59375h-11.90625-.125zm24.125,2.90625c1.70096,2e-005 2.93219.59576 3.90625,1.84375 .97843,1.24393 1.49999,2.9934 1.5,5.28125-2e-005,2.27916-.51957,4.00353-1.5,5.25-.97406,1.248-2.20529,1.84374-3.90625,1.84375s-2.94709-.59431-3.9375-1.84375c-.98045-1.24646-1.5-2.97084-1.5-5.25 0-2.28785.52155-4.03732 1.5-5.28125 .99041-1.24943 2.23651-1.84374 3.9375-1.84375zm-38.8125.375h2.625c1.13558,2e-005 1.90102.25839 2.375.6875 .47585.41876.74999,1.07319.75,2.0625s-.26165,1.61972-.75,2.0625c-.47397.42913-1.23943.68751-2.375.6875h-2.625v-5.5z" fill="#303030"/>
  </g>
  <path transform="translate(369.4 -258)" d="m63.844 360.62v28.344h297.59v-28.344h-297.59zm17.094 1.2188c2.1627 0 4.0055 0.62576 5.2812 1.7812s1.9688 2.8392 1.9688 4.8438c0 0.92692-0.13559 2.1519-0.28125 2.8438l-0.0625 0.3125-1.2812 6.8125c-0.53189 2.8922-1.4505 4.9192-3 6.4688-1.7999 1.8346-4.3957 2.8437-7.1875 2.8438-2.1891 0-4.0888-0.67799-5.375-2-1.0949-1.0949-1.75-2.7588-1.75-4.2812 0-0.7637 0.13841-2.4644 0.28125-3.25l1.2812-6.8125c0.49997-2.7332 1.4251-4.9378 2.7188-6.4062 1.7926-2.0683 4.389-3.1562 7.4062-3.1562zm18.719 0.40625h2.75c0.19745 3.8e-4 0.38356 0.10311 0.46875 0.28125s0.06114 0.40855-0.0625 0.5625l-6.0625 7c0.47136-0.09427 0.91147-0.15625 1.4062-0.15625 3.8398 0 6.7188 2.986 6.7188 6.9688 0 5.8411-4.7013 10.844-10.281 10.844-2.1614 0-4.0488-0.71461-5.375-1.9688s-2.0625-3.0482-2.0625-5.125c0-1.6122 0.37734-3.2206 1.0938-4.6875 0.66741-1.3682 1.2231-2.1134 3.4062-4.6875l7.5938-8.8438c0.0993-0.11723 0.25263-0.18975 0.40625-0.1875zm179.97 2.5312h3.5625l1.875 2.6562c0.07161-0.00652 0.14714 0 0.21875 0 0.07161-0.00651 0.181 0 0.34375 0 0.73567-1e-5 1.4427 0.07943 2.0938 0.28125s1.2474 0.50911 1.7812 0.90625c0.71613 0.52734 1.2839 1.2174 1.6875 2.0312 0.39713 0.8203 0.59375 1.694 0.59375 2.625-1e-5 1.1914-0.20443 2.289-0.5625 3.3438-0.3646 1.0612-0.87239 2.0352-1.5625 2.875-0.83986 1.0351-1.8229 1.7799-2.9688 2.2812-1.1524 0.5078-2.5143 0.78123-4.0312 0.78125-1.9401-2e-5 -3.4778-0.54428-4.6562-1.625-1.1849-1.0742-1.7812-2.4805-1.7812-4.2188 0-2.0443 0.50393-3.832 1.5-5.375 0.9896-1.5365 2.3542-2.6719 4.125-3.375l-2.2188-3.1875zm-199.12 0.25c-1.9953 0-3.6739 0.88172-4.75 2.4062-0.63209 0.89067-1.2105 2.5818-1.5938 4.5938l-1.0938 5.8438c-0.19274 1.1243-0.28125 1.9398-0.28125 2.7812 0 1.232 0.20669 1.8363 0.84375 2.5312 0.0127 0.01149 0.01976 0.04981 0.03125 0.0625 0.73527 0.82011 1.8462 1.25 3.1562 1.25 1.8815 0 3.8886-0.94666 4.875-2.2812 0.62563-0.85313 1.2775-2.6672 1.625-4.5312l1.0938-5.875c0.05556-0.25928 0.25-2.4967 0.25-2.875 0-1.1778-0.4134-2.1386-1.125-2.8125s-1.7592-1.0937-3.0312-1.0938zm46.875 2.4062c1.9336-1e-5 3.4779 0.51953 4.6562 1.5938s1.7813 2.5052 1.7812 4.25c2e-5 1.1914-0.20443 2.289-0.5625 3.3438s-0.86588 2.0286-1.5625 2.875c-0.83332 1.0286-1.8164 1.7734-2.9688 2.2812-1.1588 0.5078-2.5208 0.78123-4.0312 0.78125-1.9401-2e-5 -3.4778-0.54428-4.6562-1.625-1.1849-1.0742-1.7812-2.4805-1.7812-4.2188 2e-5 -1.1849 0.16668-2.3203 0.53125-3.375s0.90367-1.9727 1.5938-2.8125c0.84637-1.0352 1.8412-1.8294 3-2.3438 1.1524-0.50781 2.4896-0.75 4-0.75zm40.812 0c1.7253-1e-5 3.0391 0.35807 3.9375 1.0938s1.3438 1.8125 1.3438 3.2188c1e-5 0.23437 0.0013 0.49478-0.03125 0.78125s-0.08463 0.64713-0.15625 1.0312l-1.7188 8.7188h-3.75l1.6875-8.7188c0.06511-0.31251 0.1237-0.60287 0.15625-0.84375s0.03126-0.44271 0.03125-0.625c2e-5 -0.63802-0.16145-1.1185-0.5-1.4375-0.34504-0.31251-0.85416-0.46876-1.5312-0.46875-0.91144-1e-5 -1.6055 0.27344-2.0938 0.78125s-0.85936 1.3763-1.0938 2.5938l-1.6875 8.7188h-3.75l1.6875-8.7188c0.4232-2.1484 1.2214-3.7174 2.4062-4.6875 1.1784-0.96355 2.862-1.4375 5.0625-1.4375zm100.69 0c1.7252-1e-5 3.0078 0.35807 3.9062 1.0938s1.375 1.8125 1.375 3.2188c-1e-5 0.23437-0.02994 0.49478-0.0625 0.78125s-0.08463 0.64713-0.15625 1.0312l-1.6875 8.7188h-3.7812l1.7188-8.7188c0.0651-0.31251 0.09246-0.60287 0.125-0.84375s0.06251-0.44271 0.0625-0.625c1e-5 -0.63802-0.1927-1.1185-0.53125-1.4375-0.34506-0.31251-0.85416-0.46876-1.5312-0.46875-0.91146-1e-5 -1.6055 0.27344-2.0938 0.78125s-0.85937 1.3763-1.0938 2.5938l-1.6875 8.7188h-3.75l1.6875-8.7188c0.42318-2.1484 1.2214-3.7174 2.4062-4.6875 1.1784-0.96355 2.8932-1.4375 5.0938-1.4375zm56.344 0c2.0703-1e-5 3.7214 0.51432 4.9062 1.5625s1.75 2.4961 1.75 4.3125c-2e-5 1.1784-0.16016 2.2838-0.53125 3.3125-0.37112 1.0351-0.95182 1.9596-1.6875 2.8125-0.89845 1.0416-1.9388 1.8294-3.1562 2.3438s-2.6185 0.78123-4.1875 0.78125c-0.87241-2e-5 -1.7708-0.09897-2.6562-0.28125s-1.7344-0.45444-2.5938-0.8125l0.5625-3c0.79428 0.46222 1.582 0.80337 2.3438 1.0312s1.513 0.34374 2.2812 0.34375c1.6797-1e-5 3.0391-0.56772 4.0938-1.6875s1.5938-2.5547 1.5938-4.3125c-2e-5 -1.1654-0.32552-2.0742-0.9375-2.7188-0.6185-0.64453-1.474-0.96875-2.5938-0.96875-0.3646-1e-5 -0.72916 0.01693-1.0938 0.0625s-0.72264 0.14583-1.0938 0.25l-0.5625 2.8125h2.2812l-0.46875 2.5312h-5.8438l1.375-7c0.95051-0.46224 1.9154-0.83464 2.9375-1.0625 1.0221-0.22136 2.1159-0.3125 3.2812-0.3125zm-187.41 0.28125h3.75l-2.8438 14.562h-3.75l2.8438-14.562zm16.375 0h3.9688l-2.8438 14.562h-3.9375c-1.888-2e-5 -3.306-0.1159-4.25-0.34375-0.94399-0.22137-1.7187-0.56642-2.3438-1.0938s-1.1185-1.1823-1.4375-1.9375c-0.31898-0.74872-0.46873-1.612-0.46875-2.5625 3e-5 -1.3216 0.26564-2.5469 0.8125-3.7188 0.54039-1.1654 1.2982-2.1432 2.2812-2.9375 0.8594-0.70964 1.8607-1.2318 3-1.5312 1.1328-0.29948 2.862-0.4375 5.2188-0.4375zm21.406 0h3.5625l0.4375 2.6562h5.8125l1.4375-2.6562h3.875l-8.25 14.562h-4.3125l-2.5625-14.562zm27.469 0h3.75l-1.1875 6.0938 3.9375 8.375 0.53125-2.75h4.8438l2.2812-11.719h3.75l-2.2812 11.719h4.8438l-0.5625 2.8438h-17.125l-2.5-5.375-4.3125 5.375h-4.375l7.2188-8.4688 1.1875-6.0938zm24.719 0h3.75l-2.8438 14.562h-3.75l2.8438-14.562zm6.125 0h10.344l-2.8438 14.562h-3.75l2.2812-11.719h-6.5625l0.53125-2.8438zm12.438 0h3.5625l0.40625 2.6562h5.8438l1.4375-2.6562h3.8438l-8.2188 14.562h-4.3125l-2.5625-14.562zm56.375 0h3.7812l-1.2188 6.1875h5.5312l1.2188-6.1875h3.75l-2.8438 14.562h-3.75l1.0938-5.5312h-5.5625l-1.0625 5.5312h-3.7812l2.8438-14.562zm33.188 0h3.75l-2.8438 14.562h-3.75l2.8438-14.562zm7.4375 0h3.7812l-1.2188 6.1875h5.5312l1.2188-6.1875h3.75l-2.8438 14.562h-3.75l1.0938-5.5312h-5.5625l-1.0625 5.5312h-3.7812l2.8438-14.562zm-216.41 2.4375c-0.74868-1e-5 -1.4206 0.15625-2 0.46875-0.58593 0.319-1.0898 0.78776-1.5 1.4062-0.39062 0.59244-0.69791 1.2578-0.90625 2s-0.31248 1.5-0.3125 2.2812c2e-5 1.1458 0.26043 2.026 0.78125 2.625 0.51434 0.59895 1.2669 0.90624 2.25 0.90625 1.3021-1e-5 2.3958-0.60939 3.2812-1.7812 0.87892-1.1654 1.3125-2.6172 1.3125-4.375 1e-5 -1.1198-0.26692-1.9753-0.78125-2.5938s-1.207-0.9375-2.125-0.9375zm157.97 0c-0.74868-1e-5 -1.4206 0.15625-2 0.46875-0.58594 0.319-1.0898 0.78776-1.5 1.4062-0.39063 0.59244-0.69791 1.2578-0.90625 2s-0.31248 1.5-0.3125 2.2812c0 1.1458 0.26043 2.026 0.78125 2.625 0.51432 0.59895 1.2669 0.90624 2.25 0.90625 1.3021-1e-5 2.3958-0.60939 3.2812-1.7812 0.8789-1.1654 1.3125-2.6172 1.3125-4.375-1e-5 -1.1198-0.26692-1.9753-0.78125-2.5938s-1.207-0.9375-2.125-0.9375zm-132.41 0.40625c-1.7513-1e-5 -3.1341 0.48568-4.1562 1.4688s-1.5312 2.2956-1.5312 3.9688c2e-5 1.1328 0.32944 2.0143 1 2.5938 0.66408 0.57941 1.6536 0.84374 2.9688 0.84375h1.3125l1.75-8.875h-1.3438zm27.562 2.4688 0.875 5.5938 3.0625-5.5938h-3.9375zm70.75 0 0.875 5.5938 3.0312-5.5938h-3.9062zm-153.5 0.15625c-3.536 0-6.625 3.1874-6.625 6.9062 0 1.3669 0.43981 2.4578 1.1875 3.2188s1.8115 1.1875 3.125 1.1875c2.0083 0 3.8203-0.99806 4.9688-2.7812 0.89756-1.3618 1.375-2.811 1.375-4.1562 0-1.378-0.37408-2.4412-1.0625-3.1875s-1.706-1.1875-2.9688-1.1875z" fill="#303030"/>
  <g transform="translate(406.6 -21.395)" fill-opacity=".70588">
   <path d="m88.062 62.375c-4.416 0-8 3.584-8 8 0 2.3869 1.0591 4.5026 2.7188 5.9688-1.3488-1.4322-2.1875-3.3476-2.1875-5.4688 0-4.416 3.584-8 8-8 1.932 0 3.6794 0.67095 5.0625 1.8125-1.4441-1.4205-3.4096-2.3125-5.5938-2.3125z"/>
   <path d="m89.07 79.353c4.416 0 8-3.584 8-8 0-2.3869-1.0592-4.5026-2.7188-5.9688 1.3488 1.4322 2.1875 3.3476 2.1875 5.4688 0 4.416-3.584 8-8 8-1.932 0-3.6794-0.67095-5.0625-1.8125 1.4441 1.4205 3.4096 2.3125 5.5937 2.3125z" fill="#fff"/>
  </g>
  <g transform="translate(580.26 -21.34)" fill-opacity=".70588">
   <path d="m88.062 62.375c-4.416 0-8 3.584-8 8 0 2.3869 1.0591 4.5026 2.7188 5.9688-1.3488-1.4322-2.1875-3.3476-2.1875-5.4688 0-4.416 3.584-8 8-8 1.932 0 3.6794 0.67095 5.0625 1.8125-1.4441-1.4205-3.4096-2.3125-5.5938-2.3125z"/>
   <path d="m89.07 79.353c4.416 0 8-3.584 8-8 0-2.3869-1.0592-4.5026-2.7188-5.9688 1.3488 1.4322 2.1875 3.3476 2.1875 5.4688 0 4.416-3.584 8-8 8-1.932 0-3.6794-0.67095-5.0625-1.8125 1.4441 1.4205 3.4096 2.3125 5.5937 2.3125z" fill="#fff"/>
  </g>
  <g transform="translate(406.6 -21.395)" fill-opacity=".70588">
   <path d="m121.44 69.969c-2.0076 0-3.625 1.6174-3.625 3.625v5.1562c0 1.2067 0.59822 2.2483 1.5 2.9062-0.38049-0.57363-0.625-1.2572-0.625-2v-5.1562c0-2.0076 1.6174-3.625 3.625-3.625h5.1562c0.75287 0 1.453 0.20377 2.0312 0.59375-0.65796-0.90178-1.6996-1.5-2.9062-1.5h-5.1562z"/>
   <path d="m128.36 84.154c2.0076 0 3.625-1.6174 3.625-3.625v-5.1562c0-1.2067-0.59822-2.2483-1.5-2.9062 0.38049 0.57363 0.625 1.2572 0.625 2v5.1562c0 2.0076-1.6174 3.625-3.625 3.625h-5.1562c-0.75287 0-1.453-0.20377-2.0312-0.59375 0.65796 0.90178 1.6996 1.5 2.9062 1.5h5.1562z" fill="#fff"/>
  </g>
  <g transform="translate(507.59 -21.395)" fill-opacity=".70588">
   <path d="m121.44 69.969c-2.0076 0-3.625 1.6174-3.625 3.625v5.1562c0 1.2067 0.59822 2.2483 1.5 2.9062-0.38049-0.57363-0.625-1.2572-0.625-2v-5.1562c0-2.0076 1.6174-3.625 3.625-3.625h5.1562c0.75287 0 1.453 0.20377 2.0312 0.59375-0.65796-0.90178-1.6996-1.5-2.9062-1.5h-5.1562z"/>
   <path d="m128.36 84.154c2.0076 0 3.625-1.6174 3.625-3.625v-5.1562c0-1.2067-0.59822-2.2483-1.5-2.9062 0.38049 0.57363 0.625 1.2572 0.625 2v5.1562c0 2.0076-1.6174 3.625-3.625 3.625h-5.1562c-0.75287 0-1.453-0.20377-2.0312-0.59375 0.65796 0.90178 1.6996 1.5 2.9062 1.5h5.1562z" fill="#fff"/>
  </g>
  <g transform="translate(406.6 -21.395)" fill-rule="evenodd">
   <path d="m166.53 70.866-21.25 7.0625 21.25 7.0938h17.719l-10.594-3.5312h31.844l-3.5312-3.5625 3.5312-3.5312h-31.875l10.625-3.5312h-17.719z" fill="#6184b7"/>
   <path d="m166.53 70.875-21.25 7.0625 1.5938 0.53125 20.719-6.875h14.5l2.1562-0.71875h-17.719zm10.312 3.5312-2.1562 0.71875h30.094l0.71875-0.71875h-28.656zm-2.125 7.8125 8.4375 2.8125h1.0938l-8.4375-2.8125h-1.0938z" fill="#fff" fill-opacity=".70588"/>
   <path d="m181.03 70.883-8.4688 2.8125h3.2188l8.4688-2.8125h-3.2188zm22.688 3.5312-2.8125 2.8125 3.5312 3.5625h-31.844l2.1562 0.71875h30.75l-3.5312-3.5625 3.5312-3.5312h-1.7812zm-57.906 3.3438-0.53125 0.1875 21.25 7.0938h17.719l-2.1562-0.71875h-16.625l-19.656-6.5625z" fill-opacity=".70588"/>
  </g>
  <g transform="matrix(-1.0001 0 0 -1 463.3 545.57)">
   <path transform="matrix(1.4299 0 0 1.559 23.9 -139.06)" d="m20.456 277.85a4.9561 4.5457 0 1 1 -9.9121 0 4.9561 4.5457 0 1 1 9.9121 0z" fill="#808080"/>
   <path transform="matrix(1.6086 0 0 1.7538 21.13 -193.2)" d="m20.456 277.85a4.9561 4.5457 0 1 1 -9.9121 0 4.9561 4.5457 0 1 1 9.9121 0z" fill="#181818"/>
   <path transform="matrix(1.4299 0 0 1.559 23.9 -139.06)" d="m20.456 277.85c0 2.5092-2.2203 4.5457-4.9561 4.5457s-4.9561-2.0365-4.9561-4.5457 2.2203-4.5457 4.9561-4.5457 4.9561 2.0365 4.9561 4.5457z" fill="url(#b)"/>
   <path d="m48.568 299.11c-2.5055-2.5055-2.5055-2.5055-5.011 0l-2.5055-2.5055c2.5055-2.5055 2.5055-2.5055 1e-5 -5.011l2.5055-2.5055c2.5055 2.5055 2.5055 2.5055 5.011-1e-5l2.5055 2.5055c-2.5055 2.5055-2.5055 2.5055 0 5.011l-2.5055 2.5055z" fill="#181818" fill-rule="evenodd"/>
   <path d="m43.728 296.43 4.6693-4.6693" fill="none" stroke="#404040" stroke-linecap="round" stroke-linejoin="round" stroke-width="1.4173"/>
   <path d="m48.398 296.43-4.6693-4.6693" fill="none" stroke="#404040" stroke-linecap="round" stroke-linejoin="round" stroke-width="1.4173"/>
   <path d="m45.351 285.48c-4.4008 0-7.9688 3.568-7.9688 7.9688 0 2.287 0.987 4.327 2.5312 5.7812-1.1376-1.3783-1.8125-3.1372-1.8125-5.0625 0-4.4008 3.568-7.9688 7.9688-7.9688 1.9253-1e-5 3.6842 0.67488 5.0625 1.8125-1.4542-1.5442-3.4943-2.5312-5.7812-2.5312z" fill="#fff" fill-opacity=".70588"/>
   <path d="m46.777 302.78c4.4008 0 7.9688-3.568 7.9688-7.9688 0-2.287-0.987-4.327-2.5312-5.7812 1.1376 1.3783 1.8125 3.1372 1.8125 5.0625 0 4.4008-3.568 7.9688-7.9688 7.9688-1.9253 1e-5 -3.6842-0.67488-5.0625-1.8125 1.4542 1.5442 3.4943 2.5312 5.7812 2.5312z" fill-opacity=".70588"/>
  </g>
  <g transform="matrix(-1.0001 0 0 -1 792.83 545.57)">
   <path transform="matrix(1.4299 0 0 1.559 23.9 -139.06)" d="m20.456 277.85a4.9561 4.5457 0 1 1 -9.9121 0 4.9561 4.5457 0 1 1 9.9121 0z" fill="#808080"/>
   <path transform="matrix(1.6086 0 0 1.7538 21.13 -193.2)" d="m20.456 277.85a4.9561 4.5457 0 1 1 -9.9121 0 4.9561 4.5457 0 1 1 9.9121 0z" fill="#181818"/>
   <path transform="matrix(1.4299 0 0 1.559 23.9 -139.06)" d="m20.456 277.85c0 2.5092-2.2203 4.5457-4.9561 4.5457s-4.9561-2.0365-4.9561-4.5457 2.2203-4.5457 4.9561-4.5457 4.9561 2.0365 4.9561 4.5457z" fill="url(#b)"/>
   <path d="m48.568 299.11c-2.5055-2.5055-2.5055-2.5055-5.011 0l-2.5055-2.5055c2.5055-2.5055 2.5055-2.5055 1e-5 -5.011l2.5055-2.5055c2.5055 2.5055 2.5055 2.5055 5.011-1e-5l2.5055 2.5055c-2.5055 2.5055-2.5055 2.5055 0 5.011l-2.5055 2.5055z" fill="#181818" fill-rule="evenodd"/>
   <path d="m43.728 296.43 4.6693-4.6693" fill="none" stroke="#404040" stroke-linecap="round" stroke-linejoin="round" stroke-width="1.4173"/>
   <path d="m48.398 296.43-4.6693-4.6693" fill="none" stroke="#404040" stroke-linecap="round" stroke-linejoin="round" stroke-width="1.4173"/>
   <path d="m45.351 285.48c-4.4008 0-7.9688 3.568-7.9688 7.9688 0 2.287 0.987 4.327 2.5312 5.7812-1.1376-1.3783-1.8125-3.1372-1.8125-5.0625 0-4.4008 3.568-7.9688 7.9688-7.9688 1.9253-1e-5 3.6842 0.67488 5.0625 1.8125-1.4542-1.5442-3.4943-2.5312-5.7812-2.5312z" fill="#fff" fill-opacity=".70588"/>
   <path d="m46.777 302.78c4.4008 0 7.9688-3.568 7.9688-7.9688 0-2.287-0.987-4.327-2.5312-5.7812 1.1376 1.3783 1.8125 3.1372 1.8125 5.0625 0 4.4008-3.568 7.9688-7.9688 7.9688-1.9253 1e-5 -3.6842-0.67488-5.0625-1.8125 1.4542 1.5442 3.4943 2.5312 5.7812 2.5312z" fill-opacity=".70588"/>
  </g>
  <g transform="matrix(-1.0001 0 0 -1 792.83 343.6)">
   <path transform="matrix(1.4299 0 0 1.559 23.9 -139.06)" d="m20.456 277.85a4.9561 4.5457 0 1 1 -9.9121 0 4.9561 4.5457 0 1 1 9.9121 0z" fill="#808080"/>
   <path transform="matrix(1.6086 0 0 1.7538 21.13 -193.2)" d="m20.456 277.85a4.9561 4.5457 0 1 1 -9.9121 0 4.9561 4.5457 0 1 1 9.9121 0z" fill="#181818"/>
   <path transform="matrix(1.4299 0 0 1.559 23.9 -139.06)" d="m20.456 277.85c0 2.5092-2.2203 4.5457-4.9561 4.5457s-4.9561-2.0365-4.9561-4.5457 2.2203-4.5457 4.9561-4.5457 4.9561 2.0365 4.9561 4.5457z" fill="url(#b)"/>
   <path d="m48.568 299.11c-2.5055-2.5055-2.5055-2.5055-5.011 0l-2.5055-2.5055c2.5055-2.5055 2.5055-2.5055 1e-5 -5.011l2.5055-2.5055c2.5055 2.5055 2.5055 2.5055 5.011-1e-5l2.5055 2.5055c-2.5055 2.5055-2.5055 2.5055 0 5.011l-2.5055 2.5055z" fill="#181818" fill-rule="evenodd"/>
   <path d="m43.728 296.43 4.6693-4.6693" fill="none" stroke="#404040" stroke-linecap="round" stroke-linejoin="round" stroke-width="1.4173"/>
   <path d="m48.398 296.43-4.6693-4.6693" fill="none" stroke="#404040" stroke-linecap="round" stroke-linejoin="round" stroke-width="1.4173"/>
   <path d="m45.351 285.48c-4.4008 0-7.9688 3.568-7.9688 7.9688 0 2.287 0.987 4.327 2.5312 5.7812-1.1376-1.3783-1.8125-3.1372-1.8125-5.0625 0-4.4008 3.568-7.9688 7.9688-7.9688 1.9253-1e-5 3.6842 0.67488 5.0625 1.8125-1.4542-1.5442-3.4943-2.5312-5.7812-2.5312z" fill="#fff" fill-opacity=".70588"/>
   <path d="m46.777 302.78c4.4008 0 7.9688-3.568 7.9688-7.9688 0-2.287-0.987-4.327-2.5312-5.7812 1.1376 1.3783 1.8125 3.1372 1.8125 5.0625 0 4.4008-3.568 7.9688-7.9688 7.9688-1.9253 1e-5 -3.6842-0.67488-5.0625-1.8125 1.4542 1.5442 3.4943 2.5312 5.7812 2.5312z" fill-opacity=".70588"/>
  </g>
  <g transform="matrix(-1.0001 0 0 -1 463.3 343.6)">
   <path transform="matrix(1.4299 0 0 1.559 23.9 -139.06)" d="m20.456 277.85a4.9561 4.5457 0 1 1 -9.9121 0 4.9561 4.5457 0 1 1 9.9121 0z" fill="#808080"/>
   <path transform="matrix(1.6086 0 0 1.7538 21.13 -193.2)" d="m20.456 277.85a4.9561 4.5457 0 1 1 -9.9121 0 4.9561 4.5457 0 1 1 9.9121 0z" fill="#181818"/>
   <path transform="matrix(1.4299 0 0 1.559 23.9 -139.06)" d="m20.456 277.85c0 2.5092-2.2203 4.5457-4.9561 4.5457s-4.9561-2.0365-4.9561-4.5457 2.2203-4.5457 4.9561-4.5457 4.9561 2.0365 4.9561 4.5457z" fill="url(#b)"/>
   <path d="m48.568 299.11c-2.5055-2.5055-2.5055-2.5055-5.011 0l-2.5055-2.5055c2.5055-2.5055 2.5055-2.5055 1e-5 -5.011l2.5055-2.5055c2.5055 2.5055 2.5055 2.5055 5.011-1e-5l2.5055 2.5055c-2.5055 2.5055-2.5055 2.5055 0 5.011l-2.5055 2.5055z" fill="#181818" fill-rule="evenodd"/>
   <path d="m43.728 296.43 4.6693-4.6693" fill="none" stroke="#404040" stroke-linecap="round" stroke-linejoin="round" stroke-width="1.4173"/>
   <path d="m48.398 296.43-4.6693-4.6693" fill="none" stroke="#404040" stroke-linecap="round" stroke-linejoin="round" stroke-width="1.4173"/>
   <path d="m45.351 285.48c-4.4008 0-7.9688 3.568-7.9688 7.9688 0 2.287 0.987 4.327 2.5312 5.7812-1.1376-1.3783-1.8125-3.1372-1.8125-5.0625 0-4.4008 3.568-7.9688 7.9688-7.9688 1.9253-1e-5 3.6842 0.67488 5.0625 1.8125-1.4542-1.5442-3.4943-2.5312-5.7812-2.5312z" fill="#fff" fill-opacity=".70588"/>
   <path d="m46.777 302.78c4.4008 0 7.9688-3.568 7.9688-7.9688 0-2.287-0.987-4.327-2.5312-5.7812 1.1376 1.3783 1.8125 3.1372 1.8125 5.0625 0 4.4008-3.568 7.9688-7.9688 7.9688-1.9253 1e-5 -3.6842-0.67488-5.0625-1.8125 1.4542 1.5442 3.4943 2.5312 5.7812 2.5312z" fill-opacity=".70588"/>
  </g>
 </g>
</svg>
