<?xml version="1.0" encoding="UTF-8" standalone="no"?>
<svg
   xmlns:dc="http://purl.org/dc/elements/1.1/"
   xmlns:cc="http://creativecommons.org/ns#"
   xmlns:rdf="http://www.w3.org/1999/02/22-rdf-syntax-ns#"
   xmlns:svg="http://www.w3.org/2000/svg"
   xmlns="http://www.w3.org/2000/svg"
   xmlns:sodipodi="http://sodipodi.sourceforge.net/DTD/sodipodi-0.dtd"
   xmlns:inkscape="http://www.inkscape.org/namespaces/inkscape"
   enable-background="new 0 0 2391.729 1656.709"
   version="1.1"
   viewBox="0 0 2391.729 1656.709"
   id="svg10"
   sodipodi:docname="geese-flock.svg"
   inkscape:version="1.0.2 (1.0.2+r75+1)">
  <metadata
     id="metadata16">
    <rdf:RDF>
      <cc:Work
         rdf:about="">
        <dc:format>image/svg+xml</dc:format>
        <dc:type
           rdf:resource="http://purl.org/dc/dcmitype/StillImage" />
      </cc:Work>
    </rdf:RDF>
  </metadata>
  <defs
     id="defs14" />
  <sodipodi:namedview
     pagecolor="#ffffff"
     bordercolor="#666666"
     borderopacity="1"
     objecttolerance="10"
     gridtolerance="10"
     guidetolerance="10"
     inkscape:pageopacity="0"
     inkscape:pageshadow="2"
     inkscape:window-width="1920"
     inkscape:window-height="1013"
     id="namedview12"
     showgrid="false"
     inkscape:zoom="0.23812269"
     inkscape:cx="317.93265"
     inkscape:cy="477.12968"
     inkscape:window-x="0"
     inkscape:window-y="0"
     inkscape:window-maximized="1"
     inkscape:current-layer="svg10" />
  <path
     d="m 1647.1007,314.48922 c 0.349,2.242 2.089,4.45 0.36,5.959 -3.774,3.415 -2.236,9.94 1.432,13.495 3.33,0.306 6.404,2.208 9.722,1.411 l 0.039,3.674 c -1.947,-0.047 -2.255,3.094 -3.273,4.268 -1.348,7.297 5.242,14.012 12.672,11.371 0.495,5.443 3.41,11.232 8.769,12.861 2.792,-0.716 11.306,3.156 11.163,-1.199 3.2,0.116 5.23,-0.875 4.263,2.085 0.578,2.967 -2.386,3.868 -5.008,5.524 -0.411,3.284 2.373,5.114 2.27,7.781 -0.404,5.803 7.22,3.839 8.871,7.396 1.211,2.534 3.656,3.835 5.755,5.318 1.037,0.723 1.089,3.471 2.98,3.588 0.57,3.344 5.379,3.303 7.922,4.072 0.777,2.65 3.203,3.538 5.568,4.381 5.247,1.867 5.152,4.316 9.188,3.551 2.73,6.199 11.543,5.473 16.13,9.142 2.474,1.948 4.439,4.777 8.928,3.645 6.798,1.169 11.101,7.269 17.729,10.015 4.215,-0.778 9.787,-3.909 11.932,0.733 6.206,10.555 19.332,10.853 29.078,15.079 3.659,2.231 10.616,-0.251 12.318,4.98 7.164,1.075 14.328,2.15 21.491,3.225 4.765,0.762 9.031,4.497 13.775,5.402 3.698,0.705 11.58,-2.088 11.167,4.906 -6.068,15.6 -31.494,24.696 -39.586,49.655 -2.246,3.502 2.194,5.893 1.194,5.164 2.536,-1.448 5.718,-3.202 6.8,-6.612 3.304,-0.842 5.274,-3.27 8.739,-3.306 1.637,-1.056 5.709,0.321 6.067,-2.25 2.503,-0.188 3.545,0.71 3.104,3.279 -8.656,9.249 -21.213,15.047 -29.078,25.193 -1.4,-0.184 -2.471,0.636 -3.42,1.376 -5.852,4.566 -15.408,7.684 -21.905,13.129 -6.569,0.071 -8.594,8.152 -9.569,12.257 -2.02,1.131 -2.666,3.145 -3.279,5.102 -0.871,2.78 -1.493,3.469 -1.493,3.469 -2.591,5.956 -10.881,9.069 -8.435,17.479 7.522,2.139 11.076,-3.934 16.679,-7.083 l 0.025,-1.116 c 8.199,-2.053 20.197,-24.331 33.818,-23.06 7.013,-0.227 13.365,-3.976 20.009,-4.422 3.547,2.396 -1.358,4.983 -1.176,8.433 -3.55,-0.653 -6.798,0.9 -10.352,1.453 -2.674,3.429 -4.708,7.103 -8.36,8.887 -15.839,9.748 -27.741,24.655 -27.741,24.655 -1.609,3.612 2.784,5.704 2.857,8.706 2.464,9.813 -5.666,11.507 -3.097,19.505 9.676,1.07 16.213,-6.179 23.941,-10.248 2.337,2.261 4.336,6.476 9.485,3.086 11.559,-4.633 22.651,-11.76 34.907,-22.425 21.712,-26.394 30.106,-10.923 34.652,-43.858 0.388,-2.806 0.759,-5.459 1.306,-7.978 12.807,-2.765 24.92,-8.409 37.413,-13.569 l -0.063,-0.995 c 13.258,1.833 109.3,-60.597 135.24,-87.104 8.55,-9.442 18.534,-17.82 28.537,-26.382 -0.218,-5.459 44.84,-31.532 51.787,-42.385 10.82,-9.56 15.642,-23.46 23.712,-34.852 l 0.66,-2.082 0.942,0.214 c 24.809,-52.374 38.635,-44.866 136.95,-59.718 19.195,-2.9 1.022,-5.012 44.318,-4.306 v -1.301 c 2.444,0.066 5.911,0.351 6.738,-2.867 2.545,-1.258 2.835,-5.497 2.375,-8.34 -13.597,-8.524 -20.782,-3.967 -41.423,-20.104 -23.119,-23.324 -43.207,-15.855 -72.285,-3.75 -19.573,8.149 -51.162,13.193 -63.942,21.888 -30.958,15.913 -47.54,53.427 -65.35,58.845 -3.908,1.189 -7.94,2.425 -10.411,5.356 -6.598,2.6 -15.521,4.041 -24.664,6.865 -5.25,-0.59 -10.918,-0.606 -17.812,-0.053 -2.397,-0.848 -4.231,-2.662 -5.712,-4.356 -3.555,-16.324 0.94,-32.966 0.811,-49.659 l 1.254,0.253 c 1.834,-16.446 16,-36.155 22.514,-38.902 3.756,-2.247 20.227,-17.585 16.962,-36.815 -1.419,-5.208 -2.714,-11.338 -1.59,-17.363 8.865,-8.905 28.376,-62.315 25.829,-98.728995 0.867,-4.215 0.283,-8.528 0.134,-12.713 1.382,-5.018 -2.273,-9.385 -1.099,-14.292 -11.457,-89.269 -49.415,-64.3480002 -42.992,-11.132 -0.972,5.628 -0.493,11.332 -0.437,17.196 l -3.474,-0.278 c -2.473,-14.032 -12.355,-41.943 -28.037,-43.535 -9.117,13.172 -4.244,28.349 -2.95,43.655 l 1.226,-0.238 c -0.297,3.334 0.971,6.558 -2.271,5.662 0.019,-3.808 -4.536,-4.772 -5.509,-7.646 -3.846,-15.135 -17.442,-14.69 -15.628,-14.624 -9.073,8.101 -11.048,20.768 -8.078,31.975 -3.314,3.789 -8.548,-5.341 -12.404,-1.178 -2.495,-0.093 -5.663,5.28 -7.37,7.808 -3.012,4.461 -6.673,9.351 -6.073,20.147995 -2.854,1.57 -1.63,6.966 -0.868,9.481 l -0.517,1.017 c -4.625,-0.584 -9.839,-3.013 -13.963,0.251 -9.16,7.322 -14.526,18.681 -14.11,29.78 -11.835,-1.965 -16.186,9.397 -20.924,17.733 -3.584,4.046 0.943,9.232 -1.608,13.025 -3.757,2.54 -7.813,4.341 -11.457,7.29 -2.608,6.129 -6.899,12.125 -4.981,19.179 1.836,4.706 0.617,5.836 -3.913,8.589 -3.398,2.065 -6.357,3.244 -9.903,17.346 l -0.021,0.084 c 0.352,3.482 6.102,3.285 -1.518,11.042 -6.282,6.394 -6.77,13.634 -3.916,18.553 3.209,5.414 -10.192,10.623 -3.244,16.231 -2.005,8.246 -9.044,14.133 -12.645,22.128 1.061,5.13 -1.464,8.183 -4.899,12.081 -3.799,4.31 -4.08,5.456 -4.08,5.456 -0.886,4.993 -3.737,9.335 -5.535,14.162 -5.887,2.405 -5.385,-0.231 -19.961,-2.267 -4.68,-0.654 -9.513,-1.338 -14.002,-3.046 l 0.134,-1.575 -15.363,0.123 c -0.593,-0.284 -1.609,-0.771 -2.217,-1.072 -1.722,-3.567 -4.873,-5.233 -8.313,-4.417 -3.727,-3.752 -9.47,-2.922 -13.833,-4.512 -1.715,-1.36 -3.615,-2.563 -5.871,-2.41 -2.315,-3.062 -7.371,-3.178 -10.131,-5.447 -17.239,-13.511 -16.471,-9.754 -24.98,-26.585 -5.651,-11.175 -5.341,-13.161 -7.721,-12.778 -1.289,-3.493 -0.409,-7.626 -3.638,-10.342 -0.241,-7.064 -3.966,-13.032 -5.71,-20.403 l -1.146,0.195 c 0.354,-4.118 -0.403,-11.576 -3.855,-13.301 l -0.185,-0.768 c 0.338,-4.227 -1.216,-9.591 -3.645,-12.628 0.307,-3.575 -4.778,-7.725 -7.201,-3.725 -6.066,5.326 -4.072,14.318 -4.419,21.821 l 1.394,0.042 c 1.629,9.143 3.531,17.868 7.087,26.353 l 0.351,0.071 c -1.401,1.031 -3.622,0.21 -5.62,0.239 l 0.074,-0.385 c -6.826,-6.671 -7.887,-17.049 -14.746,-23.17 0.186,-6.087 -8.647,-19.14 -14.779,-10.266 -6.652,16.572 19.887,38.896 19.717,50.042 -2.458,0.037 -4.762,-0.087 -7.369,-0.062 -2.102,-2.729 -6.541,-2.969 -8.867,-5.466 -10.334,-9.005 -20.25,-19.413 -32.49,-26.112 -2.961,-2.326 -6.687,-1.665 -5.687,-1.709 -0.453,11.199 9.483,15.701 16.144,22.586 1.342,3.109 5.543,4.982 7.502,5.706 0.993,2.03 1.875,4.191 1.285,6.43 -1.161,1.674 -3.271,1.086 -5.537,1.382 -0.457,-1.137 -1.589,-1.573 -2.605,-1.958 -1.227,-0.466 -1.71,-0.846 -1.648,-0.811 -6.428,-2.509 -11.581,-8.242 -18.41,-10.104 -2.059,-1.254 -4.155,-3.067 -6.737,-3.265 -2.525,-3.493 -12.324,-4.897 -5.918,5.089 l 2.741,-0.152 c 1.679,2.461 4.11,4.341 3.744,7.183 -5.904,0.613 -10.698,-4.849 -13.669,-1.762 -2.069,2.146 -1.711,7.043 1.551,7.933 -0.011,1.433 -0.022,2.873 -0.061,4.316 l -6.852,0.547 0.232,0.116 c -6.215,1.94 -4.494,14.834 2.602,15.86 0.7,0.546 1.925,1.502 2.664,2.069 0.514,4.68 -7.252,1.096 -9.505,5.25 -2.768,3.547 -1.436,13.128 4.413,11.987 z"
     id="path2" />
  <path
     d="m 665.50013,46.936919 -0.048,0.057 0.232,0.12 c -0.378,2.745 2.563,5.927 5.333,5.452 2.078,4.229 10.863,5.489 8.181,9.594 -4.79,-0.566 -5.66,7.682 -2.92,8.961 3.138,8.027 9.576,14.964 17.314,18.664 -1.23,2.894 -4.706,5.176 -3.889,8.965 0.38,1 5.294,9.741001 15.226,16.066001 2.397,1.267 -2.283,5.359 0.781,7.138 -0.8,2.837 -0.638,7.254 2.685,7.563 4.934,9.291 16.476,12.447 25.706,12.304 5.693,-0.692 7.221,1.636 11.899,2.72 -4.883,2.823 -23.661,8.646 -11.309,18.755 2.402,1.967 5.398,2.618 8.248,1.799 1.624,0.597 3.233,1.313 4.988,2.068 -2.465,3.244 -5.715,5.565 -8.836,8.862 0.29,5.779 4.011,11.342 9.644,12.292 1.976,0.036 3.406,1.493 4.666,2.811 0.751,2.472 -3.51,3.274 -3.819,6.083 -1.264,7.68 3.874,13.267 9.982,18.102 l -0.535,-0.032 c 0.441,4.092 -1.743,9.804 1.118,11.526 -0.269,8.756 14.281,6.987 8.078,16.843 1.625,5.183 5.212,10.113 10.475,11.233 0.722,5.426 1.31,13.65 8.33,14.606 1.179,3.389 0.634,8.608 3.928,10.577 1.251,3.415 5.869,3.62 9.123,4.237 -0.343,2.115 2.797,1.046 3.797,1.199 -0.355,1 -5.72,11.503 0.321,15.953 2.04,2.289 2.965,4.967 7.691,5.856 -1.36,2.203 -0.301,5.582 1.328,7.006 0.255,6.875 8.51,7.874 8.647,14.529 4.139,3.782 9.775,6.099 14.495,3.034 2.223,0.063 6.319,0.167 8.727,0.224 -0.221,7.14 -5.126,18.127 1.608,23.814 0.616,1.96 2.561,2.884 3.864,4.198 l 0.023,0.231 0.224,0.017 0.876,0.93 -0.024,-0.239 c 1.035,0.671 2,0.911 3.026,1.491 0.247,3.031 -1.412,8.127 2.829,9.46 1.616,4.799 6.456,6.845 10.151,9.418 0.837,7.675 5.511,14.031 11.98,16.294 2.694,5.78 5.347,10.256 8.345,14.083 2.725,3.375 10.149,1.768 10.61,5.999 l -0.833,-0.373 c -1.757,7.006 -3.086,11.103 -3.25,17.369 l 1.401,-0.296 c 1.549,2.743 4.362,5.024 8.601,6.956 1.911,2.748 7.128,2.299 10.209,1.316 1.562,1.3 1.012,3.565 1.324,5.823 -1.383,1.105 -2.861,2.181 -3.924,3.577 -6.375,1.249 -10.94,6.858 -15.373,9.39 -43.182,24.666 -35.303,28.345 -46.497,35.776 -1.868,1.241 -3.788,2.527 -5.094,4.376 l -0.971,-0.635 c -1.837,5.9 2.555,4.78 5.061,6.69 -0.014,2.026 -1.717,3.713 -2.129,6.032 -4.952,-0.704 -10.025,1.427 -14.273,2.818 -1,0.531 -2.483,2.554 -3.887,1.573 4.275,-3.769 6.302,-7.552 11.775,-12.825 -8.488,0.48 -23.076,4.635 -21.655,4.198 -16.937,6.941 -35.814,7.97 -53.32,13.332 l -0.383,0.118 c 0.264,3.376 2.559,5.061 2.653,7.557 -7.767,3.215 -14.747,6.232 -22.203,9.929 -1.067,2.806 0.254,4.034 2.765,5.655 3.07,1.984 1.857,2.17 4.689,2.74 1.499,0.302 2.012,0.449 1.544,1.746 -4.606,2.929 -8.653,4.933 -13.432,8.45 2.341,5.027 8.41,5.189 14.023,4.482 2.377,5.561 -6.881,7.278 -8.456,12.849 3.118,3.59 10.058,-0.06 6.278,6.203 4.827,-0.852 9.345,-1.434 12.869,-4.217 2.153,0.863 5.805,4.256 7.043,-0.133 7.823,-6.5 14.326,-14.573 22.169,-21.222 0.269,0.611 0.593,1.343 0.836,1.88 -2.441,2.845 -3.862,6.387 -6.509,8.971 -4.991,0.485 -7.881,2.298 -8.577,5.389 -0.964,4.033 -4.219,7.008 -5.369,11.192 -3.461,3.553 6.294,4.768 7.741,2.033 7.075,-1.676 13.979,-3.736 21.122,-4.925 0.984,0.74 1.813,1.635 2.477,2.666 -4.851,6.105 -13.337,8.514 -13.651,17.978 3.617,0.219 7.258,-0.255 10.056,-2.562 5.555,0.129 8.851,-2.912 14.914,-1.4 l 0.061,-1.461 c 4.197,-0.461 7.657,-3.144 11.579,-3.885 8.789,-1.729 17.461,-4.47 25.847,-7.12 23.643,-7.473 33.349,-8.492 32.349,-8.204 1.306,-0.588 3.772,-0.165 4.705,-1.865 4.086,-0.546 6.01,-6.025 6.568,-7.988 5.739,-3.711 7.704,-10.771 11.866,-15.979 1.741,0.829 3.496,0.727 5.199,0.617 5.421,-0.354 3.468,0.668 9.172,2.524 1.793,0.584 2.568,0.865 3.589,1.515 l 0.098,-0.021 c 5.834,1.426 11.822,0.27 17.661,0.425 2.677,2.911 6.127,-1.99 8.703,-0.438 5.46,-1.478 10.697,-0.028 16.166,-1.222 3.335,0.004 9.695,2.2 11.331,-0.861 6.814,-0.615 16.102,1.06 21.53597,-2.857 7.876,-0.062 15.27,-2.689 23.969,-4.022 l -0.299,-0.756 c 6.04,-0.404 10.981,-3.542 17.256,-4.614 l 0.149,-1.069 c 13.536,-2.594 20.172,-8.535 59.909,-25.65 37.599,-16.191 99.983,-64.528 101.48,-66.489 2.748,0.117 6.478,-3.58 7.164,-6.001 4.97,-2.262 4.765,-3.99 23.081,-17.639 20.124,-16.69 59.783,-22.576 76.237,-42.895 3.816,-0.379 8.141,-3.531 10.229,-6.467 48.775,-27.379 43.73,-45.792 216.08,-61.415 1,-0.091 11.904,-1.256 22.705,-4.079 9.865,1.082 19.509,0.267 30.146,0.455 l 0.025,-1.191 c 4.057,0.6 5.676,-6.275 2.682,-7.72 -0.173,-1.798 -0.124,-1.243 -0.216,-2.243 -5.987,-4.962 -13.388,-4.414 -19.993,-7.28 -1.718,-0.507 -3.04,-2.631 -5.34,-2.42 -1.614,-2.529 -5.464,-3.448 -8.112,-4.053 -0.01,-0.008 -2.146,-1.879 -2.146,-1.879 -7.467,-3.133 -14.255,-7.848 -21.622,-11.295 l -0.18,-1.027 c -16.89,-11.004 -32.726,-19.127 -53.764,-14.429 -11.668,3.945 -25.378,6.716 -35.61,13.426 -50.086,32.846 -64.344,24.777 -100.06,42.632 -19.251,7.982 -42.505,16.319 -42.505,16.319 -7.624,0.373 -41.693,11.108 -92.698,-5.572 -20.616,-6.742 -35.464,-8.913 -35.464,-8.913 l -0.63,-2.68 c 0,0 -1.245,0.246 -1.245,0.245 -49.536,-97.191 -35.725,-128.65 -38.018,-146.06 -4.045,-30.706 -19.07,-69.918001 -43.95,-89.823001 -3.926,-3.141 -5.615,-11.786 -7.625,-16.336 -0.43,-0.974 -25.587,-53.7290004 -26.044,-54.6900004 -3.02,-6.34400004 -6.489,-21.2869996 -11.716,-25.7949996 0.141,-1.637 -0.297,-2.994 -1.271,-3.996 -1.35,-9.223 -5.81,-17.055 -7.038,-26.698 l -1.059,-0.069 c 0.226,-3.069 -10.911,-44.741 -15.114,-54.241999 l -0.99,-0.393 c -0.084,-2.714 -1.251,-5.671 -4.037,-5.749 -0.251,-2.762 -9.61,-0.196 -7.485,3.667 -1.203,3.582 -5.244,7.376 -4.839,11.493999 -1.384,4.697 -1.476,9.13 -0.285,13.544 -0.816,4.857 1.979,8.746 3.054,13.924 l 1.282,-0.199 c 0.037,3.095 -1.129,3.708 -3.666,2.205 -2.462,-8.615 -6.685,-16.509 -9.46697,-25.143 -1.709,-3.12 -2.785,-10.085999 -7.884,-9.681999 -5.769,-1.394 -8.554,4.889999 -9.903,10.665999 l -1.117,0.226 c -3.67,7.473 -1.105,15.43 -1.33,23.042 l -0.027,0.074 c 2.668,8.948 7.163,16.471 10.75,24.987 l 1.02,0.438 c 1.3,4.831 3.834,9.985 7.752,15.746 1.205,3.869 1.027,7.011 -0.534,9.826 -29.146,-32.218 -39.31,-73.824 -49.814,-59.862 -2.973,0.36 -4.761,3.738 -5.447,6.741 l -1.347,0.043 c 0.251,9.842 -1.677,21.759 5.357,28.77 3.148,9.884 7.65,12.042 9.442,18.5 0.803,2.89 1.707,6.133 4.268,6.487 -0.415,2.038 -0.374,3.698 -2.237,3.593 -1.305,-1.892 -2.656,-3.676 -4.581,-4.866 -8.031,-5.791 -28.76,-29.311 -27.76,-28.326 -2.94,-0.714 -5.929,-0.53 -7.076,2.254 -6.143,-0.427 -10.287,19.058 -5.358,23.555 0.261,1.936 0.922,4.548 2.571,6.549 0.052,3.2449996 1.226,7.2079996 4.363,8.1809996 1.713,4.60299996 4.602,8.997 7.446,11.323 0.331,1.897 1.467,3.5050004 0.951,5.0300004 -1.239,-1.268 -3.05,-1.7400004 -4.814,-2.1900004 -2.883,-0.735 -3.694,-1.318 -3.648,-1.298 -7.052,-2.099 -13.133,-7.11 -20.603,-8.46200004 -3.452,-5.21699996 -11.177,-1.28199996 -11.547,4.03200004 l -1.349,0.027 -0.013,15.6100004 1.299,0.014 c 0.213,4.574 3.313,8.966 6.588,11.596 -2.869,1.258 -5.642,2.032 -8.582,2.47 -4.538,3.37 -7.058,8.24 -6.17,13.581 -3.583,-2.002 -4.565,-4.281 -9.659,-4.87 3.076,5.029 8.679,14.115 14.248,19.237 -0.156,0.657 -0.354,1.528 -0.496,2.132 -3.041,-0.476 -3.913,-5.003 -7.104,-6.489 -8.172,-6.878 -30.923,-31.686 -55.831,-53.1730004 -2.99,-5.25 -8.992,-8.153 -10.749,-11.01 -0.726,-1.18 -1.69,-2.742 -3.528,-2.441 -0.048,-1.8699996 -1.15,-3.3659996 -2.9,-3.8819996 -9.442,-9.445 -17.992,-21.185 -27.571,-30.102 l -0.296,-3.247 -1.253,0.381 c -35.836,-48.89 -37.283,-90.295999 -56.347,-114.799999 l -3.042,-0.069 -0.188,1.478 c -5.001,3.341 -1.548,11.229 -2.871,17.087 l 1.513,-0.34 c -0.516,2.515 -1.792,6.487 1.251,7.98 -0.085,7.587 6.195,13.042 5.932,20.795 4.082,2.116 2.044,8.954 5.487,11.341 -0.43,3.223999 1.644,6.382999 3.889,8.092999 0.007,2.771 1.261,6.276 4.059,7.907 -0.595,3.007 3.449,4.072 3.996,6.626 1.052,4.324 6.173,6.361 6.086,10.566 -1.396,-1.021 -2.842,-2.364 -4.876,-2.345 -7.868,-7.777 -13.45,-20.924 -17.041,-22.784 0.407,-2.309 -0.803,-0.914 -13.917,-21.674999 -24.092,-38.143 -28.827,-38.084 -28.827,-38.084 -2.266,1.72 -2.474,4.088 -1.583,6.841 -0.378,4.725 -2.064,11.807 2.124,15.28 -0.41,4.959 3.272,8.038 2.966,13.41 l 2.616,0.104 c 5.54,16.696 35.905,52.942999 38.746,55.317999 0.402,2.067 0.859,3.942 -0.836,5.064 -2.077,-4.02 -8.991,-7.128 -7.991,-6.588 -1.624,-3.966 -5.79,-6.388 -9.339,-8.062 -0.264,-1.49 -1.175,-2.39 -2.633,-2.616 -2.38,-3.318 -6.996,-9.023 -12.182,-11.633 -0.38,-2.33 -2.742,-4.888 -5.196,-5.588 -1.864,-5.902 -0.616,-1.253 -22.424,-26.303999 -4.415,-5.071 -11.225,-14.72 -16.189,-10.143 -2.325,-3.906 -3.685,9.904 -0.486,10.457 3.931,9.036 6.907,24.063999 42.339,59.765999 0.517,1.861 1.109,3.584 1.356,5.395 -2.14,-1.388 -4.086,-2.392 -6.039,-3.137 -0.572,-3.912 -7.52,-5.082 -10.44,-6.844 -0.336,-1.949 -2.79,-1.96 -3.976,-2.587 -2.052,-3.626 -6.888,-5.646 -9.317,-6.462 0.438,-2.459 -17.143,-12.498 -24.46,-18.577 -5.563,-3.48 -7.191,7.294 -6.765,5.269 1.565,7.247 4.856,15.391 10.328,20.297 0.738,2.918 5.112,1.903 2.937,5.01 4.809,9.69 17.047,12.958 20.822,21.958 -8.437,-2.571 -15.743,-7.427 -24.489,-10.363 -5.85,1.326 -4.98,8.301 -2.781,12.194 2.822,10.576 12.373,17.071 19.217,24.79 -4.328,0.532 -10.743,1.147 -10.307,7.3649996 0.494,2.793 4.18,12.731 12.585,22.4860004 2.783,2.626 9.574,4.979 6.294,8.754 -4.883,-0.793 -7.473,9.852 -2.969,10.434 0.675,3.614 2.381,8.213 5.18,10.281 z"
     id="path4" />
  <path
     d="m2343.8 677.79c-5.5-1.683-11.185-3.414-16.896-4.078-0.587-3.901-7.151-3.765-11.383-6.233l5e-3 0.051c-0.572-0.299-1.212-0.632-1.625-0.844-2.259-2.11-4.619-3.269-5.896-6.084-2.941-1.698-5.446-3.602-8.484-5.923-35.91-27.438-65.399-1.636-164.08 24.825-14.975 4.015-28.091 9.088-43.824 9.151-53.619 0.123-47.218-4.226-55.873-6.155-20.687-4.612-40.943-5.198-61.861-0.743-30.278 13.377-86.073 26.528-90.84 33.454-0.25 0.147-0.643 0.369-0.899 0.511-5.709 0.434-10.522 3.456-15.177 6.383-11.764 7.398-14.733 6.832-17.847 10.19-3.888 0.487-7.383 2.161-10.762 3.787-11.283 5.425-13.773 4.48-16.133 7.887-13.452 2.427-38.703 18.33-39.704 18.857-3.917 5.682-11.672 8.583-14.923 14.38-4.241 4.187-12.184 6.248-14.348 12.082-2.714-0.478-4.358 1.466-5.951 3.356-4.245 5.046-10.793 6.28-13.045 11.046-2.475 0.161-2.167 6.468 0.562 4.923 7.796-2.515 15.683-5.523 23.491-8.263 4.634 0.342 9.363-3.849 10.966-8.015 0.046 8e-3 11.464 2.043 11.498 2.095 1.056 1.598-6.76 9.806 0.577 11.865l0.927 0.971c0.188 0.051 0.337 0.091 0.537 0.152-0.915 0.333-2.051 0.678-2.091 1.659-4.295-0.415-8.428 0.925-12.433 2.244-5.153 1.7-14.317-2.846-14.032 1.816-4.132 0.246-6.988 3.876-11.266 3.124-1.292 0.847-5.104-0.033-4.73 2.284-2.903-0.293-5.552 0.869-8.12 2.012-4.9 2.183-7.81 2.244-7.786 4.55-2.407-0.568-4.733-1.542-7.105-0.661l-0.212-3.547c-5.713 2.389-13.199 3.28-14.988 8.519-10.433-0.076-18.539 7.957-29.56 7.713l-0.333 2.224s-1.569 0.337-2.342 0.504c-1.574 4.293 3.965 2.523 1.331 5.036-2.447 1.064-6.259 2.235-7.505 3.769-2.379 0.081-4.817 0.244-7.255 0.492l-0.882-0.248c-1.267-1.9-5.11-3.163-7.623-2.511-3.564-2.976-7.924-4.916-12.147-6.786-17.855-7.908-33.453-22.315-50.648-33.946-0.172-2.178-2.149-3.424-3.341-4.877 0.809-0.057 2.26-0.155 3.066-0.216 10.925 6.916 21.846 15.561 34.328 19.86 1.342 2.652 5.691 2.294 8.229 2.846 4.187 2.998 9.833 4.307 14.441 5.108 1.978 3.431 10.762 2.75 9.762 2.743 1.715 1.185 3.361 1.686 4.986 1.531 3.221 3.577 12.614 2.097 14.945 1.661 6.485 3.61 7.928 0.91 7.176-1.253-1.791-5.153-7.022-0.062-26.15-8.863-1.952-0.638-3.992-1.815-6.206-1.532l0.121-1.028c-7.293-3.568-13.994-7.411-21.3-9.954-1.868-2.358-4.51-3.268-7.07-4.141-10.67-3.637-2.704-4.325-16.018-11.764-11.249-6.284-5.063-5.986-14.733-10.096-2.359-1.003-4.587-1.957-6.295-3.823-0.167-3.865-5.037-5.64-7.284-7.847-6.294-4.652-8.323-8.296-12.713-8.424l0.091-1.021c-3.521-4.067-37.263-33.757-41.125-35.31-1.352-3.237-5.256-4.692-5.511-8.177 16.039-13.214 13.976-13.116 26.85-17.3 29.716-9.659 10.464 1.065 66.436-9.341 0 0 32.599-2.48 55.18-5.408 20.091-2.605-7.749-2.057 42.013-4.462 4.571 2.307 10.804 3.607 13.745-0.082 2.334-0.136 1.225-2.712-1.829-4.921 3.028 0.032 3.915-7e-3 5.772-0.112-0.782-2.2 1.287-6.348-1.397-6.173-2.207-4.379-7.308-4.47-11.303-5.163-12.065-6.286-26.037-10.835-40.582-22.989-27.317-22.827-41.24-16.282-68.757-10.342-12.536 2.704-24.157 11.9-36.311 16.602-18.902 7.312-41.866 8.618-57.91 20.885-7.249 5.539-16.567 9.908-23.081 16.069-2.764 1.292-3.905-3.166-7.106-3.252-7.117-7.664-20.897-16.398-19.896-15.72-0.254-1.611 0.742-4.624-1.345-5.578 0.471-2.527-0.828-6.218-2.642-7.398-2.094-4.793-4.332-9.322-8.309-12.313 0.47-2.938-2.662-5.372-4.979-7.165-3.442-2.662-5.155-7.251-9.374-10.017-1.548-3.4-5.24-4.779-8.036-6.72-0.917-2.696-3.917-4.49-5.327-5.203-1.927-3.391-5.08-7.408-9.387-8.016l-0.092-2.302c-11.459-5.115-16.878-17.848-29.226-20.657l-1.395-1.269c0.615-1.716-2.369-2.025-4.196-1.962-2.055-0.802-7.641-2.238-9.251 0.469-2.733-0.225-5.47 1.163-8.355 4.235-2.343 0.084-4.153 1.42-5.287 2.588-4.502 1.929-10.916 3.788-13.174 8.161-4.475 0.066-7.36 4.123-11.185 5.138-0.154-5.025-1.165-16.087-6.743-23.667 0.188-1.585-0.223-2.939-1.214-4.021-3e-3 -2.109-0.367-7.954-4.111-9.266 0.877-3.632-3.975-3.44-4.34-6.066 1.701-5.336-1.845-11.194-6.903-12.615-4.803-2.907-11.203-4.088-14.874-0.297-2.919-0.036-6.512 1.104-7.957 3.733-1.706 0.255-2.975 1.278-4.199 2.279-14.971 12.232-31.514 20.131-41.246 35.556-4.918 2.224-8.253 6.3-11.472 10.248-9.22 11.306-4.011 2.729-26.387 25.629-14.575 14.915-20.806 19.364-20.311 18.886-1.56 1.921-2.677 3.977-4.142 6.142-3.054 0.048-5.06 2.672-6.766 5.56-1.26 0.261-1.903 1.323-2.468 2.277-3.3 5.582-11.71 11.087-16.16 17.708-2.246 0.618-3.237 3.034-3.954 5.272-2.194 1.301-4.552 2.623-5.979 4.901-4.185 5.695-11.301 9.45-13.964 16.488-2.798 1.086-6.493 4.279-6.811 7.751-5.554-2.432-6.707-10.372-11.49-14.665-5.558 0.014-5.525 6.675-5.531 12.239l-1.15-0.207c-3.625 9.244-3.75 18.164-4.556 28.259-0.252 0.592-0.681 1.617-0.94 2.25-1.095 0.505-2.021 1.253-2.766 2.232-3.615-11.697-3.799-23.444-10.371-34.095-7.311 1.529-9.597 9.612-13.351 15.286-3.344 26.195-5.971-0.106-4.245 50.231 0.27 0.321 1.094 1.3 1.332 1.589-0.5 4.151-0.359 8.156-0.12 11.874-1.825 4.009-1.819 8.266-1.209 13.377-4.052 2.666 2.604 6.554 4.401 2.793l1.793 0.616c3.358 7.391 4.797 15.117 4.173 22.385-0.119 0.023-1.798 0.35-1.873 0.364-29.427-37.09-35.532-57.664-54.493-69.601 0-2e-3 -0.019-0.113 0-0.479l-0.079 0.028c-1.12-2.668-12.971 1.367-4.94 6.797-6.901 36.091 21.333 74.436 20.33 84.232-1.845-0.827-3.691-2.485-5.95-2.294l0.05-0.959c-15.707-9.729-29.293-23.542-48.228-24.354-2.877 3.287-1.874 6.752-0.526 11.037 4.511 14.333-4.933 4.571 11.876 35.62-5.121 1.799-13.847-7.021-16.955 0.434-0.345 1.446-4.316-0.439-4.338 2.068l-1.203-0.1c-0.199 12.838-1.338 25.635 3.463 37.399-2.25 0.956-4.738 1.238-7.159 1.495l-0.095-0.181-0.359 0.23-0.615 0.066 0.125 0.237c-3.439 2.139-7.858 4.215-7.798 8.993-2.578 9.261 0.934 18.818 2.774 27.746-2.405 3.149-7.419 4.166-8.521 8.623-4.272 8.723 0.404 30.509 7.838 29.426 2.204 2.775 7.585 2.727 11.368 3.876-1.58 0.603-3.566 0.039-5.346 0.744l-0.032-1.176c-5.062 0.03-12.18-3.845-15.484 0.969-2.062 0.231-2.951 2.285-2.849 4.005-2.372 0.285-1.05 3.807-1.35 5.401-1.675-0.244-2.856-1.565-4.41-2.603-2.513-5.97-6.422-12.105-12.267-19.256 0.765-3.155-1.804-5.419-3.06-7.744-1.613-2.428-1.738-7.876-4.985-8.605-0.963-12.311-14.587-27.756-14.188-89.089 1.012-33.549-8.369-31.995-9.619-27.411-6.187 7.198-8.853 16.302-7.551 25.694-1.707 0.508-1.358 2.381-0.653 4.009-1.06 5.809-0.11 15.344-0.11 15.344 1.803 14.846 4.542 27.708 8.118 39.866l0.263 0.106-1.301 0.52c-2.566-6.682-5.7-12.763-8.362-19.91l-1.074 0.137c0.327-1.92 0.428-3.909-0.466-5.72-10.825-27.892-13.429-70.656-19.466-73.322 0.189-1.772-2.432-2.845-4.161-2.077-2.777 6.23-7.817 11.606-7.27 18.737-2.348 1.565-2.397 7.903 0.023 9.453 0.317 17.586 4.104 35.561 11.262 53.435 0.313 4.457 3.383 7.97 4.604 11.989-1-0.711-1.951-1.596-3.27-1.793-0.377-2.478-1.784-4.595-3.159-6.641-7.821-11.634-13.042-25.263-18.26-37.422l-1.054 0.089c0.185-5.13-2.554-9.582-4.175-14.767l-1.161 0.085c-0.237-7.336-3.751-13.784-5.52-21.448l-1.028 0.144c0.356-3.153-1.187-8.858-5.639-8.012-10.425 13.578-8.009 32.114-4.048 48.729l1.087-0.204c-0.648 3.688 3.587 17.215 6.805 18.365-0.475 4.821 3.074 11.753 6.782 13.228 0.756 8.751 8.953 15.104 10.196 23.663-3.164 0.805-4.48-3.409-7.638-3.712-1.845-5.021-7.805-9.093-11.706-12.235l-0.958-1.295c-0.822-2.882-3.401-7.276-7.074-7.669 0.134-5.095-5.1-10.354-9.166-12.064 0.612-4.536-4.202-6.864-7.014-12.213-1.279-2.432-2.605-4.912-5.072-5.116-1.515-7.28-9.985-16.548-12.143-16.455-2.296 0.121-4.08 3.209-2.674 5.562-1.074 7.399-0.118 22.105-0.118 22.105l0.951 1.109c0.7 7.941 2.179 15.831 7.972 20.078 0.095 1.79 1.265 2.975 2.548 3.942-0.284 3.712 2.805 6.678 5.929 7.933 0.252 0.342 0.636 0.872 0.88 1.223 5e-3 4.403 7.194 10.139 2.06 11.646-0.849-2.306-4.034-3.978-6.714-4.103l0.334-0.941c-20.469-13.303-29.924-24.51-33.96-18.684 1.846 7.32 3.998 13.755 5.354 21.486l0.987 0.13c-0.16 3.791 2.132 8.206 5.704 9.043 0.361 4.106 4.331 6.59 6.113 9.929-1.817 0.096-3.738 0.148-5.869 0.309-0.426-2.584-5.39-2.472-8.067-2.819-3.018 3.562-6.026 11.861-1.91 14.051 0.219 7.85 1.119 16.423 8.244 20.021 0.428 1.428 1.34 2.356 2.667 2.713 0.664 4.175-8.45-1.458-8.252 3.063-3.207-0.225-3.395 3.85-4.671 6.063 0.955 2.777-2.203 9.909 2.055 9.518 0.844 3.994 1.843 9.86 5.575 11.747 0.947 2.932 2.616 5.567 4.975 7.834 0 0-2.656 3.322-5.219 6.531 0.238 5.672 0.897 12.779 5.261 16.411 0.038 1.718 0.988 3.171 2.617 4.035 0.104 3.755 4.602 4.395 6.587 6.57-1.265 3.681-6.162 6.165-3.293 11.472 0.802 1.401 1.518 2.966 2.21 4.48 4.611 10.083 6.158 8.932 9.318 11.835 0.141 3.208 6.237 2.858 4.444 5.292-1.065 1.615-3.631 7.706-0.723 8.033 2.041 11.427 6.974 12.564 12.297 14.833 1.776 4.571 11.986-0.149 15.931 1.247 0.381 2.258 3.748 1.844 5.464 2.456-1.501 2.285-5.163 2.372-6.656 4.846-1.381 0.248-10.062 0.311-15.808 11.209 0.324 2.229 1.104 4.453 3.354 4.529 0.445 2.435 2.32 4.132 4.826 3.885 0.686 1.81-1.446 5.989 2.039 6.189 0.364 3.273 3.446 7.077 7.082 6.724 0.521 1.482 1.563 2.547 2.199 3.797-0.798 2.094-4.247 5.784-0.032 7.034 0.454 2.209 3.18 2.606 4.46 2.727 2.441 2.691-2.622 7.579 2.184 9.281 1.414 4.567 10.003 2.121 11.214-0.205 4.483 0.025 11.224 0.683 13.633-2.411 2.563-0.343 6.175-0.479 7.954-2.751 0.31 0.014 14.53 1.038 14.796 1.304 7e-3 0.023-1.733 2.789-1.917 3.424-4.405 0.415-10.189 3.212-11.886 6.572-5.286 0.668-8.807 5.828-13.12 8.086-3.735 2.904-0.841 10.42 5.196 9.919 2.282 3.814-2.938 9.683 1.301 12.988 2.401 2.327 4.907 4.64 8.212 4.05 1.763 3.935-1.457 11.209 2.086 13.576-0.408 2.617 2.578 5.886 5.366 5.133 2.882 4.612 5.187 6.925 3.92 12.188l1.483 0.015c1.09 4.493 8.568 2.121 11.127 0.101 3.438 0.059 6.314-1.071 9.894-1.625 0.107 1.17 1.046 2.443 4.266 2.989 5.406 4.012-2.891 8.255-3.086 13.77-0.262 0.681-0.752 1.935-1.031 2.628-2.358 2.424-4.202 10.19-0.013 12.651 0.345 2.261 3.379 3.367 5.379 3.393 3.955 3.266 5.597 5.981 4.201 10.651 2.078 2.097 3.548 4.877 6.61 4.798 1.906 2.082 5.693 2.048 7.971 3.809-0.742 2.831-1.473 7.375 0.859 8.985 0.783 4.566 5.979 8.315 7.139 7.771 2.906 0.256 4.826 2.735 7.899 3.344 0.825 1.254 1.665 2.336 2.556 3.297-2.238 8.428 4.362 16.07 12.104 18.087 2.772 0.886 2.117 6.395 5.241 7.545 0.123 3.935 3.551 6.809 10.413 8.745 4.762 2.27 1.628 9.925 6.585 12.696-0.531 3.138 2.485 2.833 4.441 2.861 2.663 1.637 1.305 6.445 3.789 7.778l0.043 1.423c6.929 1.303 13.599-7.689 12.658-6.689 1.591 0.664 3.108 0.66 4.696-0.017 2.193 3.902 8.669-0.23 11.009-2.899 3.689-0.054 4.939 3.82 10.029 3.07l-0.508-1.289c0.429-0.42 1.009-0.992 1.456-1.436l1.452 0.989c-10.91 9.892-33.709 29.217-33.709 29.217-11.575 11.483-28.912 14.49-41.371 25.044-0.583 0.637-6.265 9.116-6.737 9.821-9.022 13.469-11.565 14.454-8.85 19.25 1.463 2.582 3.9 3.028 5.396-0.287l0.725-0.567c1 0.903 1.541 2.361-1.184 2.589-0.14 2.29-3.372 6.727-0.505 7.155-2.233 7.035-11.881 3.256-16.762 8.7-2.253 1.584-1.312 4.77-3.205 5.926-7.48 3.5-19.351 5.851-18.349 5.626-2.233 2.212-14.117-5.581-14.797-0.049-7.561 2.699-14.41 9.412-18.359 14.892-7.104 3.462-7.83 10.178-14.502 13.691-5.91 3.112-6.378 5.976-6.378 5.976 4.52-1.374 12.03 2.971 12.243-1.561 2.04-0.191 5.238 0.859 6.535-1.429 0.164-8e-3 1.26-0.038 1.327 0.112 0.04 0.261-0.637 1.117-1.085 1.684-4.123 5.213 0.098 2.554-1.889 10.139-1.067 4.073-0.497 5.577-0.498 5.576 2.189-0.751 6.312 1.346 6.265-1.524 5.051-2.449 10.383-4.455 14.569-13.451 0.286-0.29 0.728-0.767 1.053-1.121 4.599-0.197 6.848-5.369 9.561-8.039 4.241-2.058 8.022-5.082 11.767-7.859 2.731 0.105 7.175-2.221 6.175-1.767 3.785-0.405 12.193 2.795 13.918-0.953 3.215-0.149 9.473 0.11 10.345-3.073 3.595 0.573 7.151 0.66 10.806 0.063 1.504 0.469 3.082 0.986 4.59 1.601 0.034 0.481 0.082 1.122 0.124 1.638-7.462 0.748-17.483-2.277-22.744 4.205-3.899 1.399-8.688 2.482-11.818 5.095-2.283-0.244-4.332 0.752-6.245 3.052-3.902 1.136-10.675 2.686-11.17 7.854-2.836 0.717-5.477 1.823-6.597 4.455 2.212 1.378 7.221 5.161 8.823 1.584 1.09 0.405 2.135 0.894 3.091 1.495 0.66 2.415-2.265 2.739-4.608 3.472-3.468 1.591-4.357 6.877-4.783 10.434-2.4 2.411-6.962 2.294-8.996 4.977-5.278 1.255-8.071 6.568-13.196 8.519-1.339 4.133 2.416 4.45 6.374 4.688 1.763 6.965-7.297 5.925-12.039 9.984 1.441 3.161 1.911 7.26 7.372 5.11-0.876 1.594-1.954 3.282-1.831 5.344-4.455 0.421-7.9 3.514-11.845 5.557-1.086 2.659 2.023 5.605 4.259 5.193 2.781 1.333 6.5 1.315 9.099-0.032 13.11 0.887 51.001-12.353 63.422-17.696 22.285-9.584 26.114-6.541 27.621-11.161 0.347-0.35 0.867-0.89 1.15-1.175 3.621-1.524 3.644-6.261 4.247-9.381 3.018-1.2 2.807-4.42 2.558-6.894 3.847-2.745 1.022-11.162 5.691-13.847 1.951-1.527 5.419-2.787 5.111-6.079 4.453-4.024 8.21-10.904 10.128-18.536 2.008 0.037 2.138-2.675 3.003-3.683 5.451 0.568 11.049 1.665 16.785 1.386 1.663 2.733 6.917 1.65 9.468 0.426 6.46-1.225 10.919 1.091 23.395 0.755 0.192-5e-3 21.913-0.043 23.632-0.029v-1.294c17.132 0.036 18.389 0.186 22.406-0.516l0.071 0.01 2.143-0.97c3.12-0.065 8.571 0.106 9.595-2.77 21.555 1.281 42.676-23.001 51.852-26.943 2.045-0.878 4.149-1.793 5.453-3.449 3.299-0.362 7.59-0.649 9.56-3.869 2.282-0.245 26.311-9.596 31.677-13.346 1.827-0.24 9.586-1.507 10.689-5.642 3.613-0.898 8.68-2.086 10.81-5.216 15.751-6.961 47.175-26.465 59.777-38.369l2.27-0.471c13.903-12.844 26.762-29.781 44.663-39.174 83.177-43.644 103.17-128.55 188.34-131.95 6.687 0 12.673-0.764 19.452-1.638 15.527-2.001 31.079 0.363 46.481-2.091 10.33-1.406 20.645-2.324 30.963-3.501l0.013 0.037c0.512-0.098 0.301-0.066 1.005-0.151l-0.01-0.028c2.06-0.344 4.649-0.669 5.88-2.633 6.68 1.469 13.392 0.207 20.115 0.33l1.253 1.337c5.882-0.131 12.792 3.474 17.884-0.824 2.545-1.192 0.66-5.543-1.913-5.004-0.598-0.121-1.592-0.336-2.333-0.497 0.349-1.066 1.101-1.662 2.316-1.857 3.178 5.795 11.364-2.771 4.58-5.969-0.18-3.272-4.093-3.412-6.182-4.764-44.21-4.75-48.59-39.259-81.843-48.574-41.834-11.718-69.535 13.494-87.101 20.293-77.422 29.965-78.31 55.074-119.54 79.69-3.813 2.276-22.573 8.349-23.107 11.983-0.33 2.247-40.107 2.104-71.645-12.507-18.563-8.6-20.12 1.809-57.32-99.876l-1.2-3.279c0.023-1.75-0.408-4.216-2.151-4.14 0.455-3.633-2.485-6.945-2.509-10.14l-0.023-0.146c-29.684-93.943 6.058-79.784-22.941-178.62-1.493 0.045-2.752 0.072-4.22 0.098-3.927 10.527-6.219 21.001-10.898 30.607-0.515-0.114-1.191-0.266-1.708-0.385-0.55-15.02 0.153-30.083-0.151-45.29l0.073 4e-3c-0.097-0.681-0.08-0.486-0.091-1.006l-0.053-3e-3c-2.733-19.107-5.213-36.994-5.289-56.138l-0.892 0.191c0.317-1.062 0.636-2.119 0.958-3.174l0.86 0.895c0.261-6.523 5.718-6.398 5.895-11.298 14.32 0.079 15.479-1.264 22.057-5e-3 3.178 0.609 7.706 1.598 8.377-1.427 13.06-0.515 25.558-6.311 37.072-9.331 2.448-2.289 8.502-0.782 10.705-3.883 12.839-1.472 24.459-7.742 37.036-11.123l0.214-1.053c4.5-1.319 10.178-1.981 13.292-5.214 2.691-0.356 5.724-1.768 8.366-3.904 10.494-4.146 21.636-9.41 34.081-16.1 9.227 5.326 16.757 13.261 28.417 13.401-0.734-6.329-3.035-11.783-6.371-17.199 0.473-0.055 0.996-0.118 1.398-0.168 3.241 4.679 6.839 7.756 10.699 9.149 2.396 3.785 9.817 4.391 13.47 1.641 3.401 7.277 10.893 13.531 22.381 18.626 0.854 3.394 7.303 0.788 10.715-0.076 3.073 4.445 7.33 7.802 11.774 9.281 0.361 1.432 1.734 2.349 4.084 2.725 1.559 2.703 4.871 4.105 8.026 3.933l-0.236 1.182c6.117 2.191 9.886 0.049 11.409-4.969 0.903 1.347 1.705 2.511 3.365 2.668 9.258 10.101 19.743 12.216 24.431 13.964 11.836 4.412 14.936 1.426 14.936 1.426 1.047-3.522-1.546-6.122-0.6-8.853 11.058 10.145 21.074 16.194 30.594 18.469 2.337 2.826 7.632 2.418 10.817 3.769 10.097 6.391 9.069-7.572 4.088-10.312-3.61-6.612-6.813-14.736-12.931-19.595 0.276-2.358-1.223-6.003-3.99-6.437 0.286-2.424-1.104-6.18-3.826-6.576-0.212-1.026-0.458-2.051-0.744-3.059 14.374 7.983 38.443 42.488 67.629 42.386l0.027 1.263 9.17-0.073c-0.784-6.461-5.477-8.819-9.347-13.113-10.327-9.865-20.008-20.915-30.919-30.252-1.043-2.902-2.897-5.246-5.307-6.758 0.132-1.161 0.743-1.745 1.941-1.858 34.834 33.157 35.019 28.546 48.637 35.742 3.042 1.605 6.182 3.24 9.781 3.06v1.199c6.381 0.273 11 0.021 18.244 0.05l0.041-1.319c3.351-0.438 0.2-5.625-2.703-5.237-0.758-1.553-2.57-1.991-3.759-2.868-15.276-8.909-29.139-20.508-42.952-31.14-3.762-5.49-9.386-11.033-15.888-15.694 0.635-0.357 1.406-0.793 1.95-1.103 20.518 11.407 21.745 23.5 64.995 34.696l0.071 1.321 7.547 0.139c-1.58 2.148-1.443 1.837-2.831 4.092 7.599-0.839 10.643-3.954 17.026-5.684 4e-3 1.412-1.192 3.771 0.5 4.267-2.587 3.968-2.604 5.887-2.276 8.181 2.557-1.047 5.6-0.716 6.066-3.013 24.519-9.272 6.357-5.939 40.111-6.611v-1.285s5.346 0.133 20.169-0.266l-0.415-1.37c7.96 0.763 15.361 0.18 24.365 0.047l-0.391-1.331c7.587 1.135 14.628-1.78 22.374-1.1 5.286-1.909 8.738 3.588 13.939 2.742-0.981 4.317 2.05 7.276 6.464 6.924 0.489 5.354 4.79 9.177 10.671 9.439 2.284 3.544 5.403 8.213 11.072 6.529 2.026 1.652 1.631 6.935 5.481 6.197 0.429 2.843 5.535 1.768 6.686 3.672 4.799 7.573 7.559 7.493 10.767 8.148 1 0.202 4.988 1.196 4.441-1.109 4.121 0.657 2.316 9.341 7.255 10.59 1.393 5.168 8.606 1.33 11.375 2.997 2.747 5.355 7.987 8.517 13.502 8.162 1.785 3.598 3.89 8.711 8.819 8.873 5.001-0.741 4.56 8.689 10.34 8.188 0.474 0.435 0.831 0.763 1.258 1.171l0.083-5e-3c8.479 3.968 1.964 17.435 14.498 20.417l-0.05 0.031c1e-3 0 1.415 0.294 1.415 0.293l3.57 0.74c1.208 8.141 5.46 15.839 12.919 19.402 2.33-0.491 3.808-1.961 5.793-2.247 6.905 27.299 16.783 23.893 16.783 23.893 9.287-3.66 7.042 7.094 11.723 11.415 0.279 3.075 2.412 5.986 5.184 7.09 0.677 1.658 1.144 4.305 3.774 4.224 1.567 3.171 8.929 5.729 9.913 2.626 3.068-0.409 5.598-3.318 6.043 0.988 2.489 2.635 3.143 8.295 7.01 9.257 1.563 5.933 7.561 11.004 13.004 13.511l-0.052 2.572c8.463 3.872 9.727-4.561 12.82-9.01 1.911 0.609 1.973 4.998 4.821 4.966 0.38 2.571 1.543 7.645 4.882 9.525 0.389 1.907 1.69 4.558 3.936 5.173-0.585 2.372 2.78 1.213 3.78 1.504-0.208 1-2.148 2.281 1.813 3.956 0.189 0.946 0.831 2.048 2.643 2.59 1.559 2.563 4.042 5.903 7.992 6.84-0.682 2.594 4.019 0.796 5.711 1.241 8.397-14.151 0.335-23.715 7.856-23.116-0.212 1.752-0.135 1.17-0.316 2.635 6.068 14.384 15.596 28.534 27.524 39.313 0.957 2.987 7.794 4.061 6.81-0.153 1.261-0.832 1.963-2.594 1.88-4.043 3.558-12.521-6.419-30.402 2.308-25.476 0.999 2.721 1.595 6.38 4.217 8.293-0.114 2.162 1.161 4.719 3.028 6.047 0.69 2.898 3.138 7.321 6.446 8.237 2.757 4.816 7.893 9.711 12.87 12.26 0.031 0.035 1.432 1.625 1.478 1.634 1.085 1.17 2.536 1.546 4.371 2.39 6.821-8.343 0.403-17.738 0.313-27.435l-1.152-0.178c-0.625-7.754-3.975-15.637-6.763-21.011 0.29-0.435 0.679-1.019 1.02-1.533 4.744 7.137 8.429 12.93 13.145 19.433 0.856 0 1.369 0.013 2.254 0.023-0.146 3.493 12.68 9.229 16.172 9.515-0.503 1.63 2.075 1.32 3.39 1.195 2.358-0.224 2.713 0.18 2.713 0.18 0.421-8.848-1.526-19.596-6.71-26.193-0.327-3.634-2.686-6.614-2.64-10.029 3.746-0.675 11.956 4.944 13.295-0.243 3.112-1.422 1.852-7.17 0.701-9.534-1.081-7.842-6.242-14.696-8.398-22.056l3.034 0.123c2.684 3.278 4.241 7.997 7.862 10.392 0.601 3.529 3.565 6.593 6.399 8.176 0.25 1.23 0.288 1.392 0.439 2.162 5.836 2.842 8.488 8.861 14.453 11.154 1.958 2.032 2.863 1.439 3.043 0.315 6.371-2.572 4.043-19.015 4.426-26.673 0.579 0.291 1.258 0.63 1.721 0.856 0.365 0.7 0.981 1.864 1.326 2.515 0.584 4.193 2.463 7.933 5.34 10.612 0.398 3.041 2.201 7.391 5.684 7.909-0.053 3.005 2.329 7.109 5.273 7.974-0.04 0.721-0.088 1.691-0.122 2.522 6.787 5.162 10.524 13.155 18.176 16.932 1.502 1.679 3.907 6e-3 3.505-1.929 1.833-12.484-3.187-24.227-5.109-36.5l-1.188-0.203c-0.25-1.583 0.669-4.333-1.373-5.282-7e-3 -2.326 0.33-3.436 2.123-3.49 2.309 5.57 4.821 12.441 8.991 16.17 0.391 2.494 1.989 5.522 4.314 6.735-0.747 2.392 1.206 6.082 3.715 6.499 0.26 0.279 0.646 0.676 0.893 0.923 5.83 12.666 24.104 24.127 23.103 23.404 0.816 2.111 3.405 1.903 6.451 2.941-2.108-8.563-2.068-17.14-6.937-22.408 0.246-5.932-15.479-36.682-17.357-39.891-0.173-1.231-0.019-1.511-0.037-1.52 0.289 0.011 2.888 1.833 3.291 2.022 1.054 5.907 5.659 12.084 10.686 14.369-0.615 3.588 3.359 5.869 5.431 7.016 6.237 11.323 19.052 17.818 29.089 20.154 1.314 2.478 5.088 2.579 7.717 2.655-1.973-9.254-29.143-42.971-34.272-55.135 6.22 4.863 10.418 12.73 18.633 15.102 1.542 2.949 5.908 2.875 9.236 2.653l-0.32 1.318c5.619 0.169 10.914 0.195 17.049 0.021 0.617-2.507 0.089-4.033-2.372-3.362-1.379-1.886-2.945-4.687-5.824-4.168-1.739-3.074-4.443-5.518-7.071-7.878-32.362-29.077-61.384-75.603-60.543-74.603-2.062-1.962-2.351-5.253-5.205-6.67-0.045-2.05-1.502-3.203-2.709-3.904-2.163-5.955-5.973-11.281-9.663-16.432-46.876-65.439-90.12-133.99-90.12-133.99-2.243-5.996-7.148-11.553-10.74-14.552-2.354-5.09-4.679-11.617-10.777-13.42-0.627-1.013-1.414-1.832-2.355-2.472 0.694-4.529-4.455-6.072-4.512-9.93 7.479-1.531 41.15-34.554 83.946-34.856 12.312-4.641 18.392 0.885 75.683-2.152 6.683-0.354 66.008-7.086 66.044-5.548 4e-3 0 1-0.022 1-0.026l7.376-0.193c0.942-1 5.557-5.047 0.731-5.087-0.019-0.32-0.031-0.519-0.051-0.838 1.517 0.849 2.815 0.877 3.815 0.895 1.136-7.951-2.99-8.489-7.408-9.84z"
     id="path6" />
  <path
     d="m 846.47052,707.96882 c -30.761,-7.144 -30.414,-9.268 -45.961,-19.904 -4.617,-3.159 -9.391,-6.412 -14.961,-5.911 -13.848,-2.643 -36.889,1.311 -58.822,16.123 -15.284,10.663 -47.259,17.191 -54.188,22.705 -12.261,4.751 -21.803,15.382 -35.072,17.304 -2.529,-1.226 -7.895,-2.258 -9.5,0.597 -6.383,-0.523 -12.594,1.408 -18.579,2.795 -3.325,-0.256 -6.388,-0.267 -9.35,-0.045 -1.096,-2.867 -6.233,-1.765 -9.178,-0.89 -12.132,-3.234 -22.562,-10.492 -33.612,-16.324 -2.925,-6.007 -11.704,-8.346 -15.986,-14.001 -3.752,-3.388 -6.003,-9.382 -9.628,-12.088 -27.086,-51.094 -25.845,-73.442 -13.931,-129.11 2.704,-0.301 2.071,-5.175 3.875,-6.994 0.423,-4.098 3.071,-11.556 -2.126,-13.513 0.158,-5.95 -6.546,-9.117 -9.015,-13.52 -13.47,-12.199 -24.734,-21.764 -37.428,-28.092 -3.842,-4.317 -8.191,-9.195 -13.208,-13.201 -1.83,-3.518 -5.032,-6.073 -9.509,-7.608 -2.003,-3.227 -5.537,-5.124 -8.966,-6.953 -23.084,-12.324 -18.031,-15.769 -50.962,-32.086 -4.784,-2.392 -7.536,-7.685 -12.663,-9.964 -0.004,-10e-4 -16.496,-3.116 -19.249,-3.705 -3.682,-3.605 -8.951,-2.792 -13.762,-3.279 -1.4,1.444 -2.241,3.014 -1.981,5.063 1.678,13.245 29.402,11.369 25.432,26.9 -4.268,2.358 0.274,11.656 -1.584,16.78 l 1.653,0.032 c 1.723,6.437 3.552,13.66 -1.221,18.985 -6.382,0.33 -11.375,-4.913 -17.789,-5.96 -12.887,-6.276 -26.667,-10.266 -40.077,-15.361 l 0.31,-1.21 c -12.02,-0.299 -21.154,-7.696 -32.408,-7.835 l 0.233,-1.128 c -5.974,-2.241 -11.421,-3.567 -17.897,-5.131 -21.829,-5.269 -21.819,-7.884 -31.3,-7.984 -17.024,-5.754 -60.771,-16.557 -77.239,-16.653 l -0.014,-1.301 h -15.603 l -0.014,1.319 c -5.73,0.113 -2.961,8.286 0.16,10.338 5.783,4.708 17.304,2.988 17.93,12.048 4.301,7.068 -6.008,7.574 -6.156,13.895 -3.168,7.343 6.21,12.934 12.107,12.138 3.023,1.178 6.077,2.11 9.09,3.267 0.146,2.049 0.008,3.921 -0.008,6.354 -0.292,0.14 -0.5,0.244 -0.831,0.4 -6.965,-1.542 -14.053,5.265 -10.939,12.847 4.355,3.055 8.12,6.544 13.338,5.611 0.435,2.419 3.495,2.505 5.262,2.835 1.263,5.994 -11.26,6.869 -6.116,14.966 0.834,7.789 10.368,8.987 15.428,12.711 1.666,5.412 -6.125,5.632 -6.695,11.592 2.896,7.919 12.634,13.146 15.082,13.781 5.451,0.406 -1.678,4.884 2.282,7.781 2.073,6.89 10.232,6.83 15.049,10.342 5.482,8.101 11.74,6.657 26.94,17.141 9.229,4.039 19.219,8.087 29.75,10.346 1.275,1.026 2.529,2.256 3.729,3.657 2.793,11.265 1.033,23.747 6.764,34.367 0.982,3.508 -0.889,10.725 3.227,11.856 0.692,7.828 3.779,13.348 2.388,21.886 l 1.201,-0.391 c -0.398,2.501 1.12,4.186 2.6,5.818 3.37,3.717 1.469,1.118 5.287,19.768 1.484,7.245 2.469,12.193 3.15,18.582 l 1.082,-0.361 c -0.035,1.794 1.135,3.214 2.129,4.389 1.493,4.251 0.684,9.605 4.027,13.322 0.886,2.312 0.297,5.207 -0.326,8.271 -3.119,15.335 2.158,14.11 31.249,11.485 0.138,2.073 0.185,4.101 0.364,6.294 -4.982,6.537 -8.976,13.253 -10.906,21.07 0.395,4.419 0.921,7.581 1.373,11.794 -8.864,6.176 -32.022,29.515 -32.033,35.686 l -1.201,0.08 c 0.463,9.872 -0.93,19.332 -10.322,22.358 -14.546,-3.037 -29.868,10.865 -37.38,14.229 -3.48,1.56 -7.063,3.182 -9.153,6.155 -4.648,-0.617 -6.613,4.35 -9.313,7.073 -0.825,6.06 -0.967,10.313 -4.577,14.357 2.358,2.21 4.292,1.678 6.704,2.347 3.436,1.706 6.429,4.724 10.559,5.191 -2.415,7.395 -11.874,13.305 -7.335,22.249 5.54,0.221 10.29,-1.344 15.839,-3.129 1.097,-3.929 7.07,-1.601 8.445,-4.937 2.562,-0.294 4.775,-1.426 7.195,-1.228 -0.1,4.976 -1.261,9.119 -1.244,14.784 l 1.672,0.06 c 1.608,2.215 8.442,2.427 9.297,-0.515 2.395,-1.319 7.484,-0.865 8.287,-3.852 8.182,-1.128 15.624,-5.112 22.823,-8.971 5.444,-2.936 20.48,-5.862 32.689,-14.076 3.527,-6.936 8.711,-13.405 9.779,-20.943 1.161,-0.689 1.741,-2.265 2.346,-3.941 3.405,-9.444 9.369,-2.928 22.123,-3.676 l 0.038,1.216 c 6.921,0.307 11.193,-0.014 18.258,0.067 v -1.316 c 29.154,-0.663 55.447,-15.371 82.597,-23.412 20.873,-6.636 40.706,-16.579 59.276,-26.222 58.614,-38.595 59.576,-12.214 101.25,-43.949 9.371,-7.136 4.253,-6.534 13.285,-10.746 2.794,-1.305 5.677,-2.658 7.307,-5.308 61.884,-48.212 91.818,-34.399 157.34,-51.263 9.215,-2.372 18.743,-4.823 28.317,-6.014 2.749,0.798 7.369,1.653 9.243,-0.526 4.636,-0.992 5.946,-11.145 0.164,-10.879 z"
     id="path8" />
</svg>
